<svg xmlns="http://www.w3.org/2000/svg">
  <symbol id="calendar" viewBox="0 0 16 16">
    <path
      d="M14.857,16H1.143C0.512,16,0,15.487,0,14.857v-12c0-0.631,0.512-1.143,1.143-1.143h1.143v0.571C2.286,3.233,3.053,4,4,4 s1.714-0.767,1.714-1.714V1.714h4.572v0.571C10.286,3.233,11.054,4,12,4s1.714-0.767,1.714-1.714V1.714h1.144 c0.63,0,1.143,0.512,1.143,1.143v12C16,15.487,15.487,16,14.857,16z M14.857,5.714H1.143v9.143h13.714V5.714z M11.982,3.429 c-0.622,0-1.125-0.503-1.125-1.125V1.125C10.857,0.503,11.36,0,11.982,0c0.621,0,1.125,0.503,1.125,1.125v1.179 C13.107,2.925,12.604,3.429,11.982,3.429z M3.982,3.429c-0.622,0-1.125-0.503-1.125-1.125V1.125C2.857,0.503,3.36,0,3.982,0 c0.622,0,1.125,0.503,1.125,1.125v1.179C5.107,2.925,4.604,3.429,3.982,3.429z"
      fill="currentColor"/>
  </symbol>
  <symbol id="text" viewBox="0 0 16 16">
    <rect y="3.691" width="8.615" height="1.231" fill="currentColor"/>
    <rect width="8.615" height="1.23" fill="currentColor"/>
    <rect y="7.384" width="16" height="1.231" fill="currentColor"/>
    <rect y="11.075" width="16" height="1.233" fill="currentColor"/>
    <rect y="14.769" width="16" height="1.231" fill="currentColor"/>
  </symbol>
  <symbol id="video" viewBox="0 0 16 16">
    <path
      d="M15.838,4.799L15.836,4.8c0,0-0.154-1.103-0.637-1.587c-0.607-0.637-1.291-0.641-1.602-0.678C11.359,2.372,8,2.372,8,2.372 H7.994c0,0-3.359,0-5.597,0.163C2.083,2.573,1.403,2.576,0.793,3.213C0.312,3.697,0.16,4.8,0.16,4.8S0,6.094,0,7.391v1.212 c0,1.295,0.159,2.592,0.159,2.592s0.156,1.103,0.634,1.588c0.609,0.637,1.409,0.615,1.766,0.684C3.841,13.589,8,13.626,8,13.626 s3.363-0.006,5.601-0.166c0.312-0.037,0.994-0.041,1.602-0.678c0.482-0.484,0.639-1.589,0.639-1.589S16,9.9,16,8.604V7.39 C15.996,6.096,15.838,4.799,15.838,4.799z M15,8.532c0,1.134-0.137,2.265-0.137,2.265s-0.137,0.965-0.561,1.389 c-0.529,0.557-1.128,0.561-1.401,0.594C10.943,12.92,8,12.924,8,12.924s-3.64-0.031-4.761-0.137 c-0.311-0.062-1.012-0.041-1.545-0.598c-0.418-0.428-0.555-1.393-0.555-1.393S1,9.664,1,8.532V7.468 c0-1.135,0.139-2.266,0.139-2.266s0.135-0.966,0.555-1.39C2.227,3.256,2.822,3.252,3.097,3.22c1.959-0.144,4.898-0.144,4.898-0.144 H8c0,0,2.939,0,4.898,0.144c0.273,0.032,0.871,0.036,1.4,0.593c0.421,0.424,0.558,1.39,0.558,1.39V5.201c0,0,0.14,1.135,0.144,2.268 V8.532z"
      fill="currentColor"/>
    <path
      d="M6.343 5.578v4.497l4.32-2.24"
      fill="currentColor"/>
  </symbol>
  <symbol id="twitter" viewBox="0 0 16 16">
    <path
      d="M16 3.54c-.588.262-1.223.437-1.884.515.678-.406 1.196-1.05 1.444-1.816-.635.374-1.338.65-2.083.796-.6-.638-1.453-1.034-2.397-1.034-1.812 0-3.28 1.47-3.28 3.28 0 .256.028.506.084.747C5.156 5.89 2.738 4.585 1.12 2.6.84 3.083.676 3.65.676 4.25c0 1.137.578 2.143 1.458 2.73-.538-.017-1.044-.167-1.487-.41v.04c0 1.592 1.13 2.92 2.633 3.22-.275.074-.566.115-.865.115-.212 0-.416-.02-.62-.06.42 1.303 1.63 2.254 3.066 2.28-1.124.882-2.537 1.407-4.076 1.407-.266 0-.525-.016-.784-.047C1.456 14.46 3.18 15 5.032 15c6.035 0 9.34-5 9.34-9.338 0-.144-.004-.284-.01-.425C15 4.777 15.558 4.2 16 3.54z"
      fill="currentColor"/>
  </symbol>
  <symbol id="new" viewBox="0 0 16 16" fill-rule="evenodd">
    <path
      d="M4.908 14.367c-.252.068-.504.137-.756.215-.71.22-1.24-.266-1.24-.887 0-.62-.045-1.196-.09-1.773 0-.133-.044-.177-.177-.22l-1.728-.666c-.576-.222-.754-.842-.443-1.33.354-.53.664-1.02 1.02-1.55.088-.134.088-.178 0-.31-.356-.49-.71-.976-1.02-1.508C.12 5.762.34 5.186.917 4.964L2.645 4.3c.133-.045.178-.09.178-.222 0-.62.044-1.24.088-1.862.046-.665.533-.975 1.33-.798.4.133.976.266 1.552.443.177.046.266.046.355-.087C6.5 1.33 6.9.843 7.255.4c.22-.267.487-.4.748-.4h.012c.256.004.506.137.702.4.4.486.798.93 1.153 1.417.044.09.133.133.266.09.252-.08.512-.148.774-.216l.224-.057c.262-.068.522-.137.774-.215.62-.177 1.11.222 1.153.842.045.62.045 1.197.09 1.818 0 .133.044.177.177.22.576.178 1.108.4 1.684.622.666.266.887.842.49 1.418-.312.532-.666 1.02-.977 1.507-.088.133-.088.177 0 .31.355.532.665 1.02.976 1.463.353.532.176 1.152-.445 1.374-.216.083-.426.166-.634.25l-.415.165c-.208.083-.418.166-.634.25-.132.044-.176.088-.176.22 0 .622-.045 1.242-.09 1.863-.043.62-.53 1.02-1.15.842-.577-.178-1.198-.31-1.774-.488-.133-.044-.177 0-.266.09-.4.486-.753.93-1.152 1.417-.444.533-1.02.533-1.463 0l-.436-.533-.283-.35c-.14-.175-.284-.35-.433-.534-.09-.09-.133-.133-.266-.09-.25.08-.503.148-.755.216l-.217.057zM8 4c2.208 0 4 1.792 4 4s-1.792 4-4 4-4-1.792-4-4 1.792-4 4-4zm0 1.75c1.242 0 2.25 1.008 2.25 2.25S9.242 10.25 8 10.25 5.75 9.242 5.75 8 6.758 5.75 8 5.75z"
      fill="currentColor"/>
  </symbol>
  <symbol id="people" viewBox="0 0 16 16">
    <path
      d="M10.706,11.939c-0.229-0.051-0.428-0.093-0.523-0.135c-0.729-0.316-1.177-0.799-1.336-1.435 c0.676-0.581,1.243-1.479,1.566-2.482c0.345-0.447,0.532-0.907,0.532-1.301c0-0.262-0.084-0.48-0.252-0.651 c-0.094-2.194-1.659-3.923-3.604-3.951L7.031,1.983c-1.909,0.011-3.482,1.693-3.62,3.851c-0.245,0.181-0.37,0.433-0.37,0.754 c0,0.463,0.262,1.018,0.72,1.526c0.317,0.87,0.809,1.635,1.394,2.17c-0.158,0.641-0.607,1.123-1.337,1.44 c-0.094,0.041-0.283,0.086-0.5,0.139C2.322,12.1,0.471,12.54,0.006,14.271c-0.028,0.104,0.035,0.211,0.139,0.239l13.657,0.007 c0.018,0,0.034-0.002,0.052-0.007c0.105-0.028,0.167-0.135,0.138-0.24C13.533,12.552,11.693,12.152,10.706,11.939z M0.458,14.145 c0.5-1.318,2.021-1.681,2.95-1.902c0.246-0.058,0.44-0.104,0.565-0.158c1.117-0.484,1.48-1.265,1.589-1.833 c0.013-0.068-0.012-0.139-0.064-0.186c-0.582-0.502-1.072-1.255-1.381-2.12C4.109,7.919,4.095,7.896,4.077,7.877 c-0.409-0.444-0.644-0.915-0.644-1.29c0-0.219,0.083-0.366,0.269-0.477c0.057-0.034,0.093-0.095,0.095-0.16 c0.087-1.995,1.508-3.565,3.251-3.576c0.001,0,0.04,0.003,0.042,0.003c1.752,0.024,3.164,1.629,3.214,3.652 c0.002,0.057,0.027,0.108,0.069,0.145c0.124,0.104,0.181,0.235,0.181,0.414c0,0.313-0.167,0.699-0.471,1.085 c-0.015,0.02-0.024,0.04-0.032,0.062c-0.313,0.994-0.876,1.871-1.542,2.408c-0.057,0.045-0.083,0.117-0.07,0.188 c0.109,0.567,0.473,1.348,1.589,1.832c0.132,0.058,0.337,0.103,0.596,0.158c0.919,0.198,2.42,0.524,2.918,1.817 C13.547,14.16,0.451,14.164,0.458,14.145z"
      fill="currentColor"/>
    <path
      d="M12.707,11.439c-0.229-0.051-0.428-0.093-0.523-0.135c-0.729-0.316-1.177-0.799-1.337-1.435 c0.677-0.581,1.243-1.479,1.566-2.482c0.345-0.447,0.532-0.907,0.532-1.301c0-0.262-0.084-0.48-0.252-0.651 C12.6,3.241,11.034,1.513,9.09,1.484L9.032,1.483C8.649,1.485,8.285,1.567,7.94,1.699c0.218,0.055,0.43,0.129,0.631,0.227 c0.155-0.031,0.313-0.051,0.477-0.052c0.002,0,0.04,0.003,0.042,0.003c1.752,0.024,3.164,1.629,3.214,3.652 c0.002,0.057,0.027,0.108,0.069,0.145c0.124,0.104,0.181,0.235,0.181,0.414c0,0.313-0.167,0.699-0.471,1.085 c-0.015,0.02-0.024,0.04-0.032,0.062c-0.313,0.994-0.876,1.871-1.542,2.408c-0.058,0.045-0.084,0.117-0.07,0.188 c0.108,0.567,0.473,1.348,1.589,1.832c0.132,0.058,0.337,0.103,0.596,0.158c0.919,0.198,2.42,0.524,2.918,1.817 c0.001,0.004-0.528,0.008-1.368,0.01c0.062,0.111,0.107,0.24,0.156,0.366l1.475,0.001c0.018,0,0.034-0.002,0.052-0.007 c0.105-0.028,0.167-0.135,0.138-0.24C15.534,12.052,13.694,11.652,12.707,11.439z"
      fill="currentColor"/>
  </symbol>
  <symbol id="globe" viewBox="0 0 16 16">
    <path
      d="M15.997 8c0-4.34-3.478-7.882-7.79-7.992-.005 0-.01-.005-.01-.005v.005C8.134.008 8.07 0 8.002 0c-4.412 0-8 3.588-8 8 0 4.232 3.31 7.7 7.473 7.974.005.004.013.004.018.007l.003-.006c.17.006.34.026.51.026.17 0 .336-.02.508-.026v.004s.005 0 .005-.004c4.163-.267 7.477-3.742 7.477-7.975zM12.7 7.88c-.018-1.21-.232-2.367-.598-3.413.587-.35 1.128-.78 1.613-1.277 1.07 1.272 1.724 2.91 1.756 4.694H12.7V7.88zm-.52 0H8.26V5.594c1.185-.04 2.346-.348 3.39-.88.324.973.52 2.045.533 3.164zM8.26 5.077V.598c1.387.614 2.522 1.934 3.203 3.63-.98.516-2.075.81-3.202.85zm-.522 0c-1.127-.04-2.22-.334-3.203-.85C5.22 2.535 6.348 1.215 7.736.6V5.08zm0 .52v2.286H3.812c.018-1.12.21-2.192.538-3.16 1.047.528 2.2.832 3.386.874zm-4.44 2.28H.523c.03-1.783.683-3.416 1.755-4.693.486.5 1.028.928 1.613 1.282-.366 1.05-.58 2.203-.598 3.412zM3.3 8.4c.034 1.113.227 2.183.554 3.155-.57.345-1.1.77-1.575 1.258C1.26 11.608.626 10.073.535 8.4H3.3zm.516 0h3.92v2.003c-1.204.038-2.37.35-3.424.898-.29-.897-.46-1.876-.496-2.9zm3.92 2.524v4.545c-.042 0-.084-.004-.127-.01-1.368-.66-2.46-1.98-3.12-3.67.997-.524 2.106-.827 3.246-.866zm.522 0c1.048.045 2.173.38 3.216.935-.662 1.65-1.747 2.954-3.1 3.6-.04 0-.078.007-.122.007v-4.542h.006zm0-.526V8.4h3.922c-.036 1.045-.215 2.05-.52 2.96-1.01-.53-2.17-.914-3.402-.962zM12.695 8.4h2.757c-.088 1.674-.724 3.208-1.74 4.416-.442-.414-.983-.83-1.597-1.195.346-.995.548-2.085.58-3.22zm.675-5.594c-.434.453-.93.84-1.45 1.166-.582-1.4-1.453-2.562-2.516-3.318 1.535.294 2.91 1.063 3.966 2.152zM6.61.653C5.54 1.41 4.665 2.57 4.084 3.973c-.53-.327-1.016-.72-1.456-1.172C3.68 1.718 5.06.95 6.61.654zM2.63 13.198c.426-.443.9-.822 1.413-1.142.538 1.34 1.34 2.467 2.336 3.24-1.457-.322-2.752-1.07-3.75-2.098zm6.983 2.105c.98-.763 1.776-1.867 2.313-3.184.512.31.997.674 1.43 1.084-1 1.03-2.293 1.773-3.743 2.1z"
      fill="currentColor"/>
  </symbol>
  <symbol id="code" viewBox="0 0 16 16">
    <path
      d="M5 11.838l-.437.438c-.058.058-.125.087-.2.087s-.144-.03-.202-.087L.088 8.2C.03 8.144 0 8.076 0 8c0-.076.03-.143.087-.2L4.16 3.723c.06-.058.127-.087.203-.087s.143.03.2.087L5 4.162c.06.058.088.125.088.2s-.03.143-.088.2L1.564 8 5 11.437c.058.058.087.125.087.2 0 .076-.028.143-.087.2zm5.168-9.33l-3.262 11.29c-.023.074-.068.13-.135.17-.066.038-.134.045-.204.02l-.542-.147c-.076-.023-.133-.068-.17-.135-.038-.066-.045-.14-.022-.214l3.26-11.288c.024-.076.07-.132.136-.17.067-.038.135-.046.206-.022l.542.15c.075.022.132.067.17.135.04.066.045.137.022.213zM15.912 8.2l-4.074 4.076c-.058.058-.125.087-.2.087-.076 0-.143-.03-.2-.087L11 11.838c-.06-.058-.088-.125-.088-.2 0-.076.03-.144.088-.2L14.436 8 11 4.563c-.06-.058-.088-.125-.088-.2s.03-.143.088-.2l.437-.44c.06-.057.125-.086.2-.086.076 0 .144.03.2.087L15.913 7.8c.06.057.088.124.088.2 0 .075-.03.143-.088.2z"
      fill="currentColor"/>
  </symbol>
  <symbol id="document" viewBox="0 0 16 16">
    <path
      d="M9.777 0h.297l3.555 4.148V14.82c0 .647-.53 1.18-1.185 1.18h-8.89c-.657 0-1.185-.532-1.185-1.19V1.19C2.37.533 2.902 0 3.558 0h6.22zM9.48.593H3.553c-.326 0-.59.27-.59.59v13.634c0 .326.27.59.592.59h8.888c.328 0 .594-.264.594-.59V4.74h-2.37c-.655 0-1.187-.526-1.187-1.19V.594zm.594.296v2.66c0 .33.268.598.59.598h2.195L10.073.888zM4.148 4.147v.593h4.148V4.15H4.148zm0-1.777v.593h4.148V2.37H4.148zm0 3.556v.593h7.704v-.594H4.148zm0 1.778v.593h7.704v-.593H4.148zm0 1.777v.594h7.704V9.48H4.148zm0 1.78v.592h7.704v-.593H4.148zm0 1.777v.593h7.704v-.593H4.148z"
      fill="currentColor"/>
  </symbol>
  <symbol id="presentation" viewBox="0 0 16 16">
    <path
      d="M16,1.067H8.266V0.267C8.266,0.119,8.147,0,8,0C7.852,0,7.733,0.119,7.733,0.267v0.801H0v11.2 h7.355l-3.278,3.276c-0.104,0.104-0.104,0.273,0,0.378C4.13,15.974,4.198,16,4.266,16c0.068,0,0.137-0.026,0.188-0.078 l3.278-3.278v2.556c0,0.146,0.119,0.267,0.267,0.267c0.147,0,0.266-0.12,0.266-0.267v-2.556l3.279,3.278 C11.596,15.974,11.664,16,11.732,16s0.137-0.026,0.188-0.078c0.104-0.104,0.104-0.273,0-0.378l-3.276-3.276H16V1.067L16,1.067z M0.533,1.6h14.933v10.133H0.533V1.6z"
      fill="currentColor"/>
    <circle cx="2.5" cy="10" r="1" fill="currentColor"/>
    <circle cx="10" cy="7.724" r="1" fill="currentColor"/>
    <circle cx="6" cy="6" r="1" fill="currentColor"/>
    <circle cx="13.5" cy="4" r="1" fill="currentColor"/>
    <polygon points="2.782,10.247 2.218,9.753 5.901,5.543 9.907,7.357 13.224,3.747 13.776,4.253 10.093,8.265 6.099,6.457" fill="currentColor"/>
  </symbol>
  <symbol id="github" viewBox="0 0 16 16">
    <path
      d="M8 .198c-4.418 0-8 3.582-8 8 0 3.534 2.292 6.532 5.47 7.59.4.075.548-.173.548-.384 0-.19-.008-.82-.01-1.49-2.227.484-2.696-.943-2.696-.943-.364-.925-.888-1.17-.888-1.17-.725-.497.055-.485.055-.485.802.056 1.225.824 1.225.824.714 1.22 1.872.867 2.328.663.072-.517.28-.87.508-1.07-1.776-.2-3.644-.888-3.644-3.954 0-.874.313-1.588.824-2.148-.082-.202-.357-1.015.077-2.116 0 0 .672-.216 2.2.82.64-.177 1.323-.267 2.003-.27.68.003 1.365.093 2.004.27 1.527-1.036 2.197-.82 2.197-.82.437 1.102.164 1.916.08 2.116.514.56.823 1.274.823 2.147 0 3.072-1.872 3.748-3.652 3.947.288.248.543.734.543 1.48 0 1.07-.01 1.93-.01 2.195 0 .213.146.462.552.384C13.71 14.726 16 11.73 16 8.196c0-4.418-3.58-8-8-8v.002z"
      fill="currentColor"/>
  </symbol>
  <symbol id="link" viewBox="0 0 16 16">
    <path
      d="M11.636 0c.572 0 1.124.11 1.656.325.53.216 1.008.534 1.43.954.42.42.738.895.954 1.428s.322 1.084.322 1.656c0 .568-.107 1.12-.325 1.656-.218.536-.535 1.012-.952 1.43l-2.18 2.18c-.043.042-.105.1-.19.176-.404.36-.857.633-1.357.82-.5.188-1.012.28-1.538.28-.663 0-1.29-.14-1.88-.424-.444-.208-.846-.492-1.205-.852s-.644-.76-.852-1.205C5.802 8.14 6.145 8 6.546 8c.14 0 .282.02.426.06.247.4.568.72.966.967.466.284.972.427 1.518.427.378 0 .745-.072 1.102-.216.356-.145.674-.356.955-.637l2.182-2.18c.28-.28.492-.6.637-.956.144-.356.216-.724.216-1.103 0-.377-.072-.745-.216-1.1-.145-.357-.356-.676-.637-.956s-.6-.492-.955-.636-.724-.216-1.103-.216-.746.072-1.102.216c-.356.144-.675.356-.955.636l-1.53 1.53c-.485-.132-.987-.198-1.505-.198-.083 0-.2.004-.352.012.076-.083.134-.146.176-.188l2.18-2.182C8.97.862 9.445.545 9.98.326 10.517.108 11.068 0 11.636 0zm-5.09 5.09c.662 0 1.29.143 1.88.427.443.21.845.493 1.205.853.36.36.645.76.854 1.204-.285.284-.628.426-1.03.426-.14 0-.282-.02-.426-.062-.246-.398-.568-.72-.966-.967-.465-.282-.97-.424-1.516-.424-.378 0-.746.072-1.103.215-.356.145-.674.357-.955.637L2.308 9.58c-.28.28-.493.6-.638.954-.144.355-.216.724-.216 1.102 0 .38.072.747.216 1.104.145.355.356.675.637.954.28.28.6.492.955.637.357.145.724.217 1.103.217s.746-.072 1.103-.216c.356-.144.675-.355.955-.636l1.528-1.528c.485.133.987.198 1.506.198.083 0 .2-.003.352-.012-.075.084-.133.146-.175.188L7.45 14.722c-.42.42-.896.738-1.43.955-.532.216-1.083.323-1.655.323-.568 0-1.12-.108-1.655-.327-.536-.218-1.012-.534-1.43-.95-.42-.422-.737-.898-.954-1.43s-.324-1.085-.324-1.657c0-.57.108-1.122.324-1.654s.534-1.01.955-1.43L3.463 6.37c.042-.042.104-.1.188-.176.404-.36.857-.633 1.357-.82.5-.188 1.013-.282 1.54-.283z"
      fill="currentColor"/>
  </symbol>
  <symbol id="harvard-hms" viewBox="0 0 48 48">
    <path
      d="M2.912 16.25V1H41.08s-.007 2.272-.007 15.35C41.073 35.673 21.83 47 21.83 47S2.915 35.108 2.915 16.25H2.91z"
      fill="none"
      stroke-width=".924"
      stroke="currentColor"/>
    <path
      d="M33.5 20.152c.112.035.218.068.31.068.083 0 .178-.022.25-.19.08-.36-.126-.623-.343-.9-.078-.1-.158-.2-.224-.31l-.02-.028.014-.032c.29-.745.075-1.606-.533-2.144-.164-.096-.43-.22-.72-.22-.075 0-.148.01-.22.027-.105.15-.03.266.108.45.093.12.188.25.2.405.1 1.143-.842 1.613-1.672 2.028-.257.128-.5.25-.71.386-3.428 1.72-3.902 3.342-3.96 4.412.024 1.172.5 2.27 1.378 3.177.103.175.21.337.315.494.406.61.826 1.243.597 2.047-.19.448-.71.5-1.087.5-1.468-.103-2.303-1.65-2.913-2.783l-.095-.175c-.043-.097-.085-.188-.128-.278-.167-.354-.338-.72-.38-1.15l-.004-.036.025-.022c.1-.09.225-.06.31-.01.122.11.185.256.246.395.104.238.176.383.368.383.01 0 .022 0 .034-.002.31-.46.097-1.013-.092-1.5l-.033-.085c-.116-.2-.3-.365-.497-.54-.222-.198-.452-.403-.58-.683l-.005-.024c-.017-.242.173-.294.312-.33.143-.04.227-.067.24-.186-.184-.6-.235-1.27-.148-1.945.054-.156.17-.23.275-.294.135-.083.22-.142.222-.286-.18-.652-.172-1.312-.148-1.934.024-.14.073-.272.12-.4.1-.272.194-.53.075-.786-.244-.086-.264-.293-.28-.46-.018-.18-.035-.283-.182-.332-.614-.003-1.12-.236-1.606-.463-.197-.092-.4-.186-.61-.264-.048-.012-.103-.02-.16-.02-.167 0-.323.064-.474.126-.087.036-.177.073-.27.098-.105.02-.208.038-.31.055-.37.06-.717.115-.956.373-.172.207-.167.435-.16.724 0 .058.003.117.003.178l-.003.02c-.04.13-.12.157-.18.157-.072 0-.14-.04-.203-.074-.028-.016-.057-.032-.072-.037l-.017-.007c-.368-.212-.524-.605-.408-1.027.037-.144-.02-.29-.153-.4-.22-.147-.53-.2-.755-.114-.254.09-.365.35-.473.6-.027.06-.054.123-.082.182-.023.237.033.513.14.69.267.276.596.46.946.653.266.148.54.3.787.504l.017.014.006.02c.104.322-.09.633-.298.896 0 .082.057.127.146.19.096.068.214.152.18.32l-.01.04-.04.01c-.424.11-.848.023-1.16-.235-.084-.072-.142-.17-.197-.266-.09-.152-.174-.296-.35-.323-.146 0-.217.145-.306.365-.03.075-.06.146-.096.205-.028.07-.04.172-.05.28-.02.18-.043.385-.183.51l-.023.02-.257-.03c-.963-.327-1.875-.83-2.884-1.584-.417-.323-.743-.767-1.057-1.195-.084-.116-.17-.23-.254-.344l-.01-.02-.09-.308c-.15-.552-.322-1.178-.95-1.337-.18.018-.33.047-.347.183l-.064.313h-.056c-.164 0-.327-.045-.484-.09-.24-.063-.498-.12-.713-.044-.163.107-.358.247-.48.43-.004.174.092.22.257.283.133.05.3.115.34.312 0 .256.16.473.298.664.033.046.065.09.092.13l.025.037-.023.038c-.057.095-.136.17-.212.24-.074.068-.143.133-.19.213l-.232.586c.086.173.193.374.39.405.186-.074.402-.04.597.005.138.032.28.063.43.048h.044c.047 0 .102-.008.16-.016.062-.01.127-.02.19-.02.187 0 .29.096.308.283.092.235.05.448.01.653-.015.073-.03.146-.037.22l-.012.032c-.314.46-.748.832-1.253 1.075-.1.065-.11.243-.066.38.067.087.178.127.348.127.097 0 .2-.014.3-.025.046-.006.09-.012.133-.016.27-.014.51-.103.744-.19.213-.078.433-.16.677-.186l.047-.004.022.043c.073.147.273.51.54.642.015.002.042.006.068.006.116 0 .205-.075.298-.154.1-.086.215-.184.373-.184.05 0 .103.01.157.03l.02.01c.185.147.245.355.302.556.05.178.1.346.23.478l.018.017.002.026c.018.177-.113.232-.2.27-.032.013-.06.024-.085.04l-.017.01c-.167.058-.358.073-.542.087-.295.023-.576.045-.76.23-.03.16.128.3.24.353.313.172.716.233 1.105.293l.173.025c.146.02.346.004.527-.013.237-.023.49-.035.674.014l.09.024-.194.302-1.22.824c-.235.1-.466.175-.69.247-.344.112-.67.22-.964.38-.09.024-.167.036-.24.036-.332 0-.58-.2-.82-.396-.24-.193-.47-.377-.767-.354-.262 0-.452.074-.66.257-.134.135-.183.363-.128.608.03.062.104.087.188.116.102.037.243.087.243.27-.014.37-.18.684-.34.99-.154.292-.314.594-.335.942-.024.154.02.342.178.405.116.06.27.02.353-.063.047-.047.078-.103.11-.162.062-.114.133-.244.325-.28h.02c.133.015.243.022.34.022.355 0 .6-.088.775-.277l.017-.02.024-.003c.183-.03.377.15.377.32 0 .19.01.327.123.38h.02c.487 0 .76-.46 1.003-.868.035-.06.07-.116.103-.17l.015-.026.03-.006c.072-.014.147-.038.225-.063.125-.042.256-.085.388-.085.104 0 .197.026.282.082l.023.015.006.026c.07.288-.046.52-.158.744-.066.132-.128.257-.156.394.02.065.11.135.205.16.602-.085.99-.587 1.367-1.07.067-.087.133-.172.2-.255l.005-.015c.07-.15.168-.36.425-.36l.02.003c.054.017.106.025.154.025.237 0 .383-.205.538-.422.096-.134.195-.272.32-.363l.02-.014h.222l.015.05c.03.1.012.184-.003.26-.015.068-.027.128-.003.196.123.13.287.067.453-.012.076-.035.154-.072.233-.09l.543-.333.03.01c.567.176 1.17.32 1.75.456l.166.04c.35.13.312.406.282.628-.024.177-.047.342.075.464l.033.032-.018.044c-.072.177-.276.27-.59.27-.306.042-.64.05-.963.055-.8.016-1.628.03-2.235.602l-.546.537h-.027c-.423.015-.734.215-1.063.428-.273.177-.556.36-.905.422-.19.125-.408.14-.58.14-.07 0-.143 0-.214-.005-.068-.003-.135-.006-.2-.006-.242 0-.43.04-.552.23.248.48.84.64 1.36.78.085.037.18.043.284.048.182.01.387.02.482.215l.006.022c.027.25.075.504.33.594.062.018.135-.018.206-.06.062-.038.126-.076.203-.076.058 0 .115.022.167.07.138.187.298.32.453.448.173.144.337.278.456.468l.022.034-.02.037c-.08.148-.214.222-.41.222-.097 0-.197-.017-.295-.033-.09-.017-.176-.03-.25-.03l-.032-.007-.033-.017c-.08.01-.165.026-.25.04-.17.03-.345.063-.515.063-.28 0-.49-.09-.643-.272-.127-.093-.247-.2-.363-.304-.328-.293-.64-.57-1.105-.574-.37.098-.72.238-.79.612-.025.136.06.215.157.306.048.045.097.09.13.144l.038.06-.057.036c-.605.41-.856.85-.745 1.3l.01.025c.05.122.088.196.197.196.076 0 .147-.03.224-.058.135-.052.292-.09.432-.014l.03.018.005.034c.012.086.016.18.02.278.015.326.03.663.322.79.1-.02.2-.07.294-.12.124-.062.252-.13.396-.13.11 0 .212.04.316.116.048.02.108.035.17.035.153 0 .298-.083.453-.173.1-.06.203-.118.31-.153l.023-.003c.54 0 .753.47.926.846l.024.056.072.056c.232.18.52.4.808.4.086 0 .167-.018.245-.06.103-.16.072-.34.04-.532-.044-.257-.093-.55.275-.73.116-.034.224-.048.353-.048.068 0 .136.004.204.008.163.01.326.01.46-.02l.01-.002.01.002c.162.015.32.03.48.03.505 0 .807-.15.978-.485l.49-.844.108-.556.04-.012c.137-.04.306.014.46.07.1.036.193.07.27.07.057 0 .122-.018.166-.146-.176-.518-.223-1.015-.145-1.562.106-.423.294-.77.544-1.014l.033-.032.198.082.008.036c.05.204.086.41.12.61.075.422.145.818.325 1.2l.008.017-.002.02c-.027.303-.124.59-.217.865-.084.25-.172.51-.206.778-.148.603-.57 1.11-1.16 1.404-.04.032-.198.18-.118.357.05.094.138.132.31.132.043 0 .087-.002.133-.004.108-.007.215-.008.296.006.75-.098 1.448-.46 1.967-1.022l.028-.03.04.01c.22.06.417-.04.597-.143.14-.08.286-.164.454-.164.1 0 .194.027.29.085.12.09.26.128.462.128.096 0 .196-.008.293-.017.097-.008.196-.016.29-.016.254 0 .56.056.665.502l.003.014-.003.015c-.02.11-.004.253.014.403.042.362.097.812-.416.948l-.015.005-.015-.002c-.21-.033-.432-.143-.645-.247-.26-.128-.527-.26-.78-.26-.208 0-.39.093-.555.284-.082.077-.248.267-.147.476.094.158.254.43.043.617l-.028.052c-.168.287-.36.61-.233.934.08.14.25.187.52.134.064-.028.142-.043.226-.043.168 0 .33.063.487.122.14.053.27.104.4.112l.022.002.114.09c.276.22.558.455.916.435.07-.044.097-.125.127-.215.025-.076.054-.16.112-.233.11-.094.247-.14.378-.188.246-.086.458-.16.458-.44.083-.434.445-.78.756-.964l.03-.017.03.012c.124-.002.687-.164.887-.438l-.072-.088h.002l-.102-.112c-.053-.06-.103-.114-.136-.145l-.018-.015-.004-.022c-.072-.32.1-.588.267-.844.208-.324.39-.604.12-.974l-.01-.02c-.038-.135-.055-.28-.073-.42-.04-.327-.08-.636-.352-.85-.155-.13-.342-.202-.54-.277-.167-.064-.342-.13-.506-.238l-.033-.02v-.038c0-.183.17-.204.273-.217.044-.004.09-.01.12-.022.27-.08.5.015.726.102.142.054.275.105.396.105.112 0 .205-.046.29-.146.03-.318-.262-.604-.496-.836l-.034-.034c-.327-.228-.747-.328-1.154-.425-.58-.138-1.178-.282-1.555-.81l-.035-.05.148-.14.035.01c.21.042.42.064.628.064.616 0 1.18-.194 1.586-.55.345-.443.704-.903 1.26-1.06.486-.38.585-.98.585-1.763.027-.29.155-.553.37-.77.12-.11.293-.164.462-.216.322-.1.505-.17.45-.44-.397-.205-.822-.4-1.303-.348l-.022.002-.02-.01c-.072-.04-.114-.09-.123-.15-.016-.11.08-.205.157-.28.027-.028.05-.052.065-.072l.02-.02c.18-.12.39-.23.59-.338.69-.37 1.406-.752 1.378-1.604-.023-.042-.036-.087-.05-.13-.033-.107-.053-.16-.143-.17-.17.022-.313.14-.464.266-.112.092-.228.188-.37.253-.367.206-.786.295-1.19.383-.443.094-.86.184-1.223.413l-.017.01h-.02c-.074 0-.13-.035-.157-.098-.04-.093.006-.223.057-.274.123-.17.308-.273.485-.37.217-.122.423-.236.526-.48.03-.073.056-.153.083-.235.108-.323.23-.69.59-.824.107-.082.232-.13.355-.18.17-.064.33-.128.413-.27-.033-.123-.193-.202-.326-.248-.125-.04-.255-.06-.387-.06-.594 0-1.124.4-1.463.738l-.022.015c-.078.033-.157.065-.237.1-.46.188-.933.386-1.266.74l-.014.014-.02.005c-.064.018-.15-.002-.206-.047-.053-.043-.083-.105-.083-.176-.093-.938.682-1.647 1.306-2.218l.193-.168c.16-.042.308-.137.466-.236.217-.14.444-.28.704-.28.103 0 .202.02.303.065.293.16.576.3.875.3.102 0 .198-.016.295-.048.28-.103.445-.325.62-.562.15-.203.305-.413.543-.557.06-.02.108-.028.16-.028.13.002.257.043.38.082zM17.877 17.74c-.246-.17-.418-.425-.375-.75.053-.22.13-.495.375-.54.124-.026.25.043.25.167-.08.324-.077.64.124.914.522.573 1.333.737 1.663 1.414h-.208c-.623-.396-1.178-.9-1.828-1.205zm-6.773-.874c.006-.132.037-.224.083-.25.137-.078.375.266.375.417.025.13.05.233 0 .332-.1.097-.22.012-.29-.042-.152-.123-.22-.335-.168-.457zm2.368 5.03c-.245-.027-.458.3-.706.123-.253-.202.085-.65-.29-.748-.423.176-.79.66-1.29.58.326-.544.92-1.143.624-1.868-.077-.326-.282-.665-.582-.79-.3-.024-.49.316-.79.166-.123-.28-.644-.148-.416-.498.174-.307.88-.332.582-.832-.2-.272-.655-.123-.707-.498.05-.228-.15-.557 0-.706.604-.045.98.543 1.33.914.675.33 1.188 1.002 1.663 1.58 1.072.895 2.192 1.685 3.49 2.035.052.2-.1.393-.25.54-.427.448-.757.967-1.204 1.37-.098.025-.213.01-.29-.04-.448-.43-.39-1.304-1.164-1.33zm-2.868 4.695c.02-.042.05-.105.084-.124.1-.056.24.025.332.084.175.176.54.24.54.54-.22.148-.593.247-.87.124-.15-.15-.06-.398-.086-.623zm7.44-.124c-.248.254-.643.042-.916.166-.376.097-.44 1.02-.914.415-.195-.07-.32.152-.416.25-.2.473-.403.913-.75 1.29-.077.044-.212.12-.29.04-.047-.318.224-.9-.25-.998-.2-.024-.406.088-.58.166-.372-.027-.838-.004-1.04.373-.052.175-.11.39-.333.416-.226-.104-.525-.16-.623-.458-.104-.078-.25-.164-.375-.04-.2.2-.256.54-.582.54-.253 0-.464-.07-.665-.168.05-.578.685-.645 1.08-.873.8-.174 1.404-.68 2.203-.83 1.253-.475 2.268-1.422 3.24-2.37.15-.05.267-.082.417-.082.097.194.095.454.375.498.272.053.624-.292.748.084-.05.52-.076 1.132-.33 1.58zm.415.29c.318-.823.573-1.82.25-2.742-.08-.176-.246-.117-.375-.042-.15.1-.23.32-.457.25-.177-.272.194-.696-.208-.873-.343.077-.53.39-.83.54-.753.446-1.674.598-2.577.623-.176 0-.317-.054-.415-.125.227-.228.56-.267.83-.416 1.047-.623 1.727-1.767 2.577-2.617-.077-.37-.392-.82-.04-1.164.28-.025.36.304.58.375.377.2.885.3 1.29.125.35-.072.596-.382.622-.706.025-.15-.11-.24-.208-.29-.097 0-.205.014-.25-.085 0-.176.1-.307.25-.333.42.026.863.914 1.163.167.175-.597-.367-1.038-.79-1.414-.097-.123-.176-.246-.124-.415.323-.2-.087-.485.165-.706.422-.325 1.09-.135 1.538-.458.772.018 1.293.615 1.995.79.098.148.028.473.333.498.072 0 .167.088.167.166-.024.248-.095.5-.166.748-.076.2-.332.262-.332.54 0 .15.223.225.25.374l-.043.997c-.623.2-.33 1.01-.374 1.413-.077.326.027.632 0 .956-.148.072-.42.064-.498.29 0 .378.168.658.29.956.23.326.683.41.708.83-.325.028-.61-.193-.914-.29-.474-.254-.808-.75-1.08-1.205-.08-.07-.18-.098-.25 0-.052.298-.06.762-.333.956-.325-.193-.306-.993-.83-.746-.178 1.07-.916 1.922-1.54 2.826-.15.045-.18.26-.374.206zm-4.863 7.065c.278.046.533.298.665.54-.22.15-.496.067-.748.043-.15-.124-.234-.396-.208-.54.094-.044.198-.056.29-.042zm8.394-2.535c-.426.406-.847.936-.996 1.538 0 .422-.017.81-.042 1.206-.125.102-.254-.055-.332-.127-.202-.298-.14-.968-.665-.872-.273.307-.548.77-.375 1.165.22.324.662.575.416.997-.377.2-.248.786-.748.83-.753.106-1.523-.233-2.12.292-.2.174-.354.42-.458.664-.343.055-.24-.42-.415-.623-.123-.2-.365-.062-.54-.165-.273-.1-.548-.393-.873-.167-.278.148-.59.48-.914.208l-.458-.124c-.024-.15.165-.35.042-.498l-.873-.374c-.055-.08-.012-.198.04-.25.727-.474 1.56.066 2.41-.083.553-.2 1.064-.06 1.664-.04.324.025.712.106.914-.167.125-.183.207-.464.084-.664-.255-.546-1.065-.68-1.165-1.332-.05-.122-.126-.236-.25-.29-.2-.07-.338.18-.54.083-.052-.175-.096-.426-.29-.498-.377 0-.84.173-1.165-.082.05-.195.308-.15.457-.25.526-.104.98-.437 1.454-.665l.707-.083c.72-1.17 2.203-1.11 3.45-1.163l1.247-.376c.42.1.51.605.582.956-.026.376-.047.632-.25.955zm3.16 7.025c.09-.055.25.052.29.125.02.13-.156.082-.208.082-.105.025-.122-.033-.166-.082.006-.055.053-.107.083-.125zm6.15-17.497c-.403-.077-.732-.49-1.206-.29-1.227.57-2.537 1.42-2.867 2.866-.144.552-.112 1.174.29 1.62.1.053.23.053.334 0 .248-.446.442-1.033 1.04-1.163.35-.123.713-.256 1.04-.458.05 0 .14-.062.166.04-.15.424-.357.933-.83 1.082-.353.3-.704.675-.75 1.12-.026.23-.05.534.126.71.176.148.383-.07.54-.168.642-.798 1.644-.904 2.618-.956.045.078-.11.225-.208.25-.824.274-1.597.963-1.87 1.786.025.124.103.204.208.25.396-.046.735-.26 1.164-.208.1.272-.352.272-.457.5-.772.675.003 2.183-1.29 2.408-.376.105-.333.527-.58.748-.423.553-1.128.702-1.83.624-.5.052-.9-.64-1.33-.167.052.493.46.782.707 1.205.63.603 1.486.618 2.286.872.098.026.196.11.25.207 0 .175-.226.11-.375.085-.5.07-1.085.158-1.58-.042-.078-.026-.14.093-.166.164.07.553.66.74 1.038 1.04.376.175.905.132 1.08.58v.583c.176.273.245.605.168.956-.345.397-.565.93-.292 1.455-.15.122-.39-.015-.54.08-.175.378-.66.468-.79.833-.025.307-.2.58-.5.624-.252-.02-.4.092-.623.042-.155-.175.066-.437-.207-.54-.35-.07-.497.452-.872.248-.176-.097-.337-.155-.415-.33-.02-.23.217-.314.373-.417.818-.096 1.905-.227 2.202-1.12.047-.43-.154-.794-.083-1.164-.123-.474-.607-.78-1.08-.83-.45-.124-.963.034-1.29-.292-.13-.096-.26-.196-.415-.125-.123.026-.176.204-.333.125-.124-.123-.31-.3-.458-.125-.3.6-.728 1.284-1.454 1.413-.098-.175.095-.38.166-.582.228-.475.403-1.02.5-1.537.2-.28.446-.627.29-.997-.297-.852-.667-1.762-.415-2.743.173-1.143-.107-2.22-.957-2.99-.475-.273-.843-.77-1.413-.874-.376-.124-.97.045-1.163-.333.045-.396.496-.646.664-.996l.667-.957c.272-.053.177.317.458.29.52 0 .494-.853 1.038-.58.253.35.662.447.915.747.35 1.43.854 2.8 1.828 3.948.752.975 1.92 1.722 3.116 1.372.325-.272.755-.565.83-1.04.327-2.27-2.545-3.406-2.326-5.65.2-2.126 2.352-3.29 4.072-4.114.948-.5 2.166-1.143 2.244-2.37-.026-.123-.003-.208.042-.332.35.124.35.547.374.873.08.397-.304.628-.208 1 .105.2.4.275.374.497-.945.027-1.085 1.273-2.035 1.246z"
      fill="currentColor"/>
    <path
      d="M2.932 12.09v2.623h38.124V12.09H2.932zm4.388 2.156H3.386v-1.688H7.32v1.688zm9.39 0h-4.332v-1.688h4.332v1.688zm9.48 0h-4.325v-1.688h4.325v1.688zm9.42 0h-4.33v-1.688h4.332v1.688z"
      fill="none"
      stroke-width=".188"
      stroke="currentColor"/>
    <path
      d="M14.856 9.302c.047.002.094.004.142.004.252 0 .418-.05.468-.3.054-.218.04-.414-.04-.558-.238-.21-.57-.21-.923-.21h-.02l-.015-.008c-.214-.12-.172-.355-.145-.51l.003-.02c-.09-.425-.057-.84-.025-1.242.024-.29.048-.59.027-.896l-.002-.024.133-.2.028-.005c.113-.026.223-.033.328-.04.218-.013.405-.024.563-.2.054-.094.147-.304.065-.493-.023-.123-.128-.184-.24-.247l-.042-.025c-.093-.062-.212-.052-.32-.047-.18.007-.385.02-.48-.19l-.006-.025c-.026-.41-.026-.794-.026-1.2-.08-.118-.202-.17-.405-.17-.08 0-.163.008-.244.015-.157.014-.31.022-.423 0-.468.024-.943-.002-1.4-.026-.32-.02-.65-.037-.968-.037-.698 0-1.216.09-1.684.29l-.03.01-.028-.01c-.364-.16-.795-.252-1.318-.28-.162-.008-.33-.018-.503-.03-.274-.018-.556-.035-.827-.035-.284 0-.52.02-.723.062-.106.008-.21-.01-.308-.02-.1-.013-.202-.025-.296-.025-.202 0-.323.052-.4.177L4.67 4.034l-.014.017c-.12.146-.28.164-.406.164-.052 0-.106-.003-.16-.007-.052-.004-.104-.007-.154-.007-.148 0-.243.034-.316.114-.18.152-.137.324-.087.522.062.208.232.284.485.34l.03.014c.048.04.11.044.18.044h.042c.087 0 .22 0 .31.126l.013.027c.106.53.08 1.028.056 1.51-.02.36-.037.702-.004 1.056l.002.034-.17.17-.026.003c-.06.006-.12.01-.18.013-.2.012-.388.02-.53.13-.175.15-.18.356-.18.614.023.03.044.064.065.1.068.11.115.178.21.19l.026.01c.064.036.14.043.233.043h.11c.137 0 .294.01.42.154l.017.03c.053.198.04.4.03.594-.018.288-.032.538.162.722.386.008.776.013 1.168.02.822.01 1.673.022 2.53.06h.02l.09.06c.195.132.38.257.616.3.31-.023.604-.145.826-.343l.02-.017h.023c.332-.022.696-.03 1.11-.03.494 0 1.004.013 1.5.026.485.014.987.027 1.48.027.07-.21.054-.495.04-.748-.005-.103-.01-.2-.01-.29-.026-.178 0-.313.075-.4.095-.11.25-.125.39-.125.046 0 .093 0 .14.002zM13.21 3.37c.104-.13.26.024.31.13-.025 2.098.026 4.162-.052 6.05-.052.105-.154-.024-.233-.076-.13-.312-.027-.7-.027-1.007-.076-1.682 0-3.39 0-5.097zm-3.72-.054c.15-.304.513-.408.85-.408l2.428.026.078.123c0 2.098 0 4.09-.025 6.13-1.032.104-2.195-.077-3.232.21-.228-.21-.054-.546-.1-.826-.05-.675 0-1.422-.032-2.123.033-1.006-.045-2.142.033-3.13zM6.124 7.33c.026-1.298.053-2.876.053-4.272 0-.103.13-.15.208-.174.903.07 1.884-.156 2.61.304l.105.234c.052 1.733.052 3.493.052 5.305l-.05.67c-.444.024-.886-.21-1.373-.158-.495-.052-1.04.05-1.474-.08-.26-.59-.078-1.186-.13-1.83zm-.31-4.064c.103 2.098-.027 4.11.026 6.104-.025.104-.13.234-.26.234-.155-.65-.13-1.267-.078-1.916-.052-1.32-.025-2.792-.025-4.11.052-.13.208-.262.338-.312zm2.714 7.187c-.26.104-.572.054-.852.054l-2.637-.054c-.18-.155-.102-.52-.102-.72 0-.26.08-.572-.208-.73-.364-.076-.728.028-.96-.258.18-.514 1.012-.098 1.168-.67.08-.96-.078-1.915-.026-2.817-.105-.518-.675-.362-1.04-.44-.05-.05-.122-.13-.1-.234.31-.305.933.052 1.167-.383.102-.414.024-.805.078-1.187.13-.13.355-.13.54-.078v.103c-.237.176-.54.514-.438.826.1 2.168 0 4.11.1 6.147l.18.21c1.012 0 2.123-.105 3.103.077.05.026.05.105.026.156zm.128-.416c-.824-.225-1.733-.07-2.61-.174l-.026-.027c.052-.154.182-.285.365-.285.875 0 1.727 0 2.506.184.024.13-.105.252-.235.303zm.93.755c-.105.13-.306.154-.462.077-.157-.026-.182-.21-.208-.34-.05-.285.234-.382.39-.597.203.032.332.164.435.287.05.208.026.468-.155.572zm.415-.78c-.105-.02-.21-.097-.21-.228.08-.233.365-.156.572-.233.8.027 1.76-.024 2.534 0 .128.055.258.156.336.286-.078.156-.312.08-.468.13h-.826c-.674-.032-1.342-.076-1.94.047zm4.084-.773c-.078.414.05.83-.078 1.24l-.185.077-3.642-.05c-.078-.055 0-.105.025-.158l.364-.13 2.95.024c.303-.076.303-.46.33-.694-.026-1.448 0-2.713-.026-4.11-.024-.7.105-1.37-.05-2.046-.028-.154-.254-.26-.28-.433.155-.078.435-.078.538.076.078.41-.103.956.156 1.365.26.157.65.08.91.13.103.105.078.26.026.365-.285.285-.884-.078-1.04.39 0 1.006-.052 1.985.026 3.025l.156.13c.338.052.753-.078.98.175.026.157 0 .312-.15.364-.336.08-.83-.105-1.01.26zM28.123 8.99c.04-.17 0-.322-.118-.465-.108-.16-.27-.18-.458-.203-.174-.02-.354-.044-.49-.183l-.02-.02-.002-.025c-.08-.895-.052-1.557 0-2.464l.007-.025c.112-.24.356-.257.572-.27.187-.012.363-.022.47-.158.11-.134.11-.415.04-.578-.107-.245-.347-.28-.6-.317-.124-.02-.252-.037-.366-.082l-.033-.012-.01-.034c-.07-.244-.062-.474-.055-.697.007-.208.013-.422-.042-.646l-.05-.03c-.102-.066-.216-.144-.318-.125-.208.022-.426.033-.67.033-.342 0-.69-.02-1.03-.04s-.686-.042-1.025-.042c-.678 0-1.21.088-1.675.278-.08.052-.178.08-.282.08-.162 0-.317-.07-.467-.136-.12-.054-.235-.105-.352-.12l-2.34-.027c-.108.022-.322.012-.51-.003-.11-.01-.225-.02-.333-.02-.312 0-.496.08-.612.26l-.084 1.23c-.105.183-.318.185-.506.187-.1 0-.2.002-.284.026-.26.047-.41.272-.366.537.047.358.33.384.655.412.15.012.306.026.437.078l.045.017v.05c0 .186.014.365.027.54.023.304.047.617-.002.97l.026 1.15-.017.022c-.157.185-.394.188-.624.19-.23.003-.45.006-.58.187-.067.198-.085.356-.05.457.122.293.428.313.752.334.153.01.31.02.444.064l.036.013.01.038c.075.3.057.6.04.886-.006.116-.013.232-.013.35.138.188.35.27.702.27.12 0 .243-.01.363-.018.15-.01.305-.022.444-.015.38-.014.768-.006 1.15 0 .37.008.738.014 1.118 0h.016l.663.293c.28.16.544-.012.8-.184l.112-.073.016-.01 1.052-.026c.42-.03.942-.014 1.415.01.274.01.558.024.835.024.334 0 .616-.02.886-.058.174-.1.167-.236.14-.468-.016-.147-.034-.298.024-.445.026-.062.017-.137.008-.217-.014-.12-.03-.258.088-.356l.032-.015c.07-.016.145-.028.22-.04.3-.05.583-.097.735-.334zm-2.18-5.594c.128-.078.336.078.336.234-.026 1.97.052 4.085-.078 6-.104.025-.234-.104-.26-.21-.026-.804-.104-1.603-.053-2.453.052-1.116-.078-2.428.052-3.57zM22.17 8.852V3.475c0-.182.124-.338.28-.39.286-.2.675-.122 1.04-.176l2.037.053.053.146c-.027 2.02.024 4.09-.027 6.103l-.104.054c-1.11.103-2.195-.184-3.2.18-.184-.103-.028-.414-.08-.595zm-3.258-5.838c-.027-.11.078-.05.13-.078.85.052 1.856-.13 2.61.2.233.21.207.572.207.884-.027.98.052 2.14-.053 3.18l.027.358c.052.675 0 1.215-.027 1.916-.31-.053-.65-.155-.98-.207-.648 0-1.27.052-1.89-.054l-.052-.232c0-2.012.027-3.93.027-5.966zm-.416.2l.103.104c.077 1.787-.104 3.39 0 5.176-.155.41.182 1.007-.417 1.11-.103-1.786-.025-3.702-.078-5.637-.05-.31.13-.597.39-.753zm2.377 7.395c-1.034-.026-2.142.05-3.15-.08l-.103-.077c-.027-.46.025-.954-.183-1.37-.31-.13-.695 0-1.033-.103-.156-.078-.103-.286 0-.385.338-.18.98.1 1.162-.363-.025-1.013.054-1.967 0-2.998-.286-.416-.876-.027-1.136-.416.104-.593.928-.078 1.163-.565l.078-1.216c.157-.154.365-.103.54-.076-.052.228-.253.306-.358.488-.157.416.027.83-.052 1.265.026 1.787 0 3.468.026 5.22 0 .138.097.288.227.313l2.772.053c.15.024.33.078.436.182-.05.154-.258.102-.387.127zm-2.377-.695c.078-.13.156-.26.285-.364.904.08 1.89-.05 2.767.185.104.024.232.13.156.252l-.207.183c-.903-.332-2.046-.105-3-.255zm3.57 1.008c-.18.024-.468 0-.468-.263.052-.18.208-.337.39-.44.182-.05.28.13.332.234 0 .206-.026.47-.254.47zm.54-.806c-.156.026-.332 0-.357-.176.096-.233.408-.31.667-.336.93-.078 1.837 0 2.74 0 .13.078.285.208.285.337l-.13.046c-1.083.027-2.2-.122-3.205.13zm4.214-.878c-.08.466.13.875-.054 1.317l-.13.078c-1.317-.026-2.61-.026-3.848-.052-.052-.026-.027-.104.026-.13l.232-.13c1.033-.104 2.17 0 3.26-.104.157-.027.28-.15.253-.307 0-1.967.025-4.014.025-6.208-.05-.312-.357-.493-.408-.772.18 0 .513-.104.616.123 0 .468-.027.883.08 1.345.31.287 1.187-.122 1.004.572-.28.182-.668.052-.98.104l-.077.106c-.13 1.032.078 2.097 0 3.025.025.104.078.286.233.305.285.033.728-.175.824.19-.045.615-.85.05-1.057.537zM40 9.256c.085-.01.166-.02.224-.048.19-.073.3-.205.323-.386 0-.17-.112-.31-.234-.454-.106-.052-.224-.076-.348-.1-.15-.032-.308-.063-.443-.15l-.033-.022v-.038c0-.298-.01-.596-.02-.884-.016-.574-.033-1.116.02-1.636l.002-.02.013-.017c.127-.16.316-.163.483-.166.144-.003.28-.007.373-.1.12-.138.26-.3.214-.527-.04-.332-.245-.373-.575-.413-.193-.022-.392-.046-.537-.17l-.02-.016-.005-.025c-.028-.172-.02-.353-.012-.527.015-.302.028-.59-.14-.816-.3-.06-.608-.065-.908-.07-.31-.007-.63-.014-.943-.076-.31.05-.644.054-.968.056-.627.005-1.276.01-1.755.37l-.03.02-.036-.012c-.093-.03-.184-.064-.274-.098-.288-.108-.56-.21-.865-.21l-3.516-.077-.088.067-.048 1.335-.064.16-.03.01c-.124.042-.257.06-.386.08-.285.04-.554.076-.686.343-.05.3.008.506.178.612.084.06.23.062.37.063.25.003.558.008.596.353-.014.454-.002.896.01 1.366.008.316.017.645.017.975l-.003.02c-.06.218-.257.218-.35.218l-.123-.002c-.055 0-.116.003-.158.027l-.02.008c-.153.034-.413.127-.438.378-.024.186.02.413.217.5.09.042.203.057.322.07.2.025.427.054.542.244l.006.016c.053.177.038.38.023.573-.023.304-.043.592.168.79l2.247.026c.09.003.183.004.276.004h.002c.154 0 .31-.003.467-.003.513 0 1.1.025 1.565.323.055.02.12.033.188.033.198 0 .38-.113.557-.223.058-.035.114-.07.17-.1l.016-.01h.018l3.045.033c.296 0 .604 0 .87-.114.027-.19.02-.386.01-.577-.01-.235-.02-.48.036-.705.086-.234.306-.26.483-.282zm-1.766-5.912c.103-.234.31.105.39.234-.053 1.447-.026 2.817.025 4.187-.027.65-.027 1.216-.027 1.812-.025.05-.025.077-.078.104-.44-.182-.284-.676-.31-1.058.026-.546-.053-1.168.05-1.707l-.078-.184.027-3.386zm-6.747-.41c.903 0 1.682.028 2.533.1.57.18.416.855.44 1.292-.032.167-.08.324-.123.486l.104.222.397.078.124-.28c-.064-.22-.13-.44-.187-.655.05-.365-.08-.727.18-1.04.54-.338 1.294-.123 1.963-.234l.93.033c.13.202.102.488.102.722 0 1.24.027 2.402-.027 3.57 0 0 .055 1.57-.044 2.014l-.207.078c-.935.104-1.917-.208-2.715.26-.156.026-.156-.182-.18-.26l.05-2.664c.027-.024.04-.044.052-.058l-.045-.148-.45-.052v.162c.12.032.08.208.106.28.027.875.027 1.83-.052 2.636-.286.076-.47-.184-.746-.184-.728.052-1.403-.077-2.15.027-.26-.105-.18-.417-.18-.65-.026-1.96 0-3.67-.026-5.656.024-.052.102-.08.153-.08zm-.518.306c.102.233.05.39.102.624V9.42c-.05.157-.233.234-.337.34l-.103-.078c-.02-.598.025-1.267-.02-1.84v-.44c-.033-1.215-.033-2.56.02-3.8.102-.102.207-.31.337-.362zm2.92 7.344c-1.24-.026-2.48.076-3.694-.026l-.105-.13c-.05-.463.054-.902-.153-1.318-.285-.26-1.11.078-.902-.514.304-.232.798.077.98-.31 0-1.086.052-2.047-.026-3.052-.236-.313-.676-.105-.98-.184-.105-.104-.182-.26-.08-.39.337-.278 1.318.08 1.137-.72.103-.34-.156-.98.31-1.007.106 0 .235-.033.307.078-.052.202-.306.358-.384.565.027 2.124 0 4.423.078 6.616l.183.105c1.137.025 2.35-.233 3.332.233.05.03.024.03 0 .056zm-.72-.57c-.676-.08-1.422 0-2.1-.08.184-.564.98-.228 1.423-.33.598.078 1.266-.104 1.786.208.078.052.078.18 0 .2-.313.365-.695-.078-1.11 0zm1.577.932c-.208.027-.39-.077-.44-.26-.054-.26.102-.492.284-.597.235-.026.34.154.443.286.026.233.026.57-.286.57zm.514-.777c-.156-.027-.207-.204-.156-.307.208-.235.546-.182.858-.235l2.116.054c.13.077.26.208.287.33-1.06.13-2.092-.122-3.104.157zm3.962-.93l-.054 1.29-.182.078-3.44-.024c-.053-.053-.027-.078.025-.104l.417-.156h2.61c.13-.025.312-.13.312-.312-.027-2.038-.052-4.16-.052-6.383l-.312-.617c.13-.13.494-.156.57.045.106.494-.102.987.183 1.424.305.077.8-.106.956.206-.026.624-.878.13-1.06.624.078.98-.08 1.785.027 2.844-.105.076-.13.18-.054.284.278.233.642-.154.93.104.18.052.078.208.078.307-.238.338-.802-.045-.956.39z"
      fill="currentColor"/>
    <path
      d="M21.547 7.123c-.312-.26-.39-.65-.65-.962.104-.153.286-.18.416-.31.207-.2.416-.487.312-.8-.027-.26-.156-.52-.416-.648-.542-.2-1.24-.123-1.788-.07-.103.05-.13.15-.05.227.207.076.285.23.31.414-.026.7-.026 1.396-.103 2.097l-.287.307c.286.26.676.06 1.092.13.103-.182-.183-.313-.235-.514.052-.207 0-.492.13-.675.39.337.52.876.98 1.188l.61.046-.02-.33c-.075.05-.225-.074-.303-.1m-.805-1.27c-.175 0-.46.13-.512-.1.024-.337-.13-.778 0-1.09.232-.18.597-.104.772.13.103.182.103.415.103.623-.103.183-.156.39-.363.436m14.213.727c.104.155.176.312.156.513l-.207.286.13.104c.305-.025.72.078 1.007-.052-.08-.156-.26-.208-.364-.31-.364-.95-.617-1.956-.902-2.938l-.313.15c-.18.876-.544 1.676-.75 2.584-.046.175-.23.202-.36.305-.18.05-.258-.157-.336-.254-.025-.78.08-1.423.027-2.254-.026-.13.13-.286.26-.154.208.104.182.362.26.545.053.078.183.078.2-.053l.132-.798c-.104-.26-.332.026-.54 0-.39-.027-.934.078-1.298-.156-.304.104-.228.54-.278.824-.025.053 0 .104.026.13.252-.154.382-.57.746-.468l.026.78-.08 1.682c-.103.13-.356.175-.336.356.44.13.986 0 1.428.053.253.025.54.078.747 0 .05-.053.027-.13-.025-.183-.156-.078-.34-.208-.286-.408.08-.13.104-.39.338-.312.058 0 .078.03.096.07l.37.046v-.012c.05-.05.05-.077.13-.077m-.547-.363l-.13-.053c.08-.283 0-.616.235-.824.232.157.207.515.31.8-.05.13-.285.13-.416.078m2.902-1.76c0 .188.135.524-.025.66-.183-.16-.208-.316-.5-.395-.157 0-.313.025-.345.207-.053.56.505.56.818.923.292.292.422.766.292 1.135-.123.3-.265.476-.552.476-.265.053-.455-.13-.663-.025-.05 0-.154.05-.215-.026l.033-1.026c.027-.052.08-.08.13-.08.157.338.052.736.526.76.157-.023.287-.044.313-.25.058-.924-1.156-.696-1.13-1.644.027-.215.052-.397.162-.58.208-.343.683-.135 1-.343.132-.052.132.128.157.207m-12.974-.052c-.26.13-.545.338-.468.7-.077.625-.05 1.267-.024 1.942l.416.356-.026.053c-.442 0-.85.078-1.292 0-.183-.2.233-.306.31-.462.08-.726.158-1.472.08-2.278-.08-.23-.468-.13-.365-.382.39-.052.9-.052 1.292 0l.076.072zm-12.55.494c-.26.31-.31-.286-.57-.313-.157-.02-.39-.07-.514.053-.05.338-.103.65 0 .962.104.076.306.052.436.052.156-.105.234-.392.442-.364.13.13-.053.337.025.467-.052.202.13.436-.104.514-.156-.078-.234-.364-.442-.364l-.356.027c-.13.467-.078.883 0 1.324.2.2.462.02.695.02.336-.072.26-.54.544-.487.08.182.105.468.053.67l-.157.1-1.837-.024c-.078-.028-.26-.028-.182-.157.6-.357.26-1.06.338-1.624-.077-.416.234-1.04-.31-1.292-.027-.155.155-.11.207-.155.467 0 1.083.177 1.447-.208.287.156.26.513.287.8M8.97 4.48c-.52.416-.546 1.142-.78 1.734-.207.338-.104.83-.434 1.117-.13.046-.235-.077-.26-.182-.182-.804-.415-1.604-.7-2.357-.027-.23-.566-.285-.255-.46.385-.05.67.053 1.035.02.077.233-.286.363-.183.65.234.336.156.85.442 1.187l.13-.13c.02-.59.694-1.137.122-1.655.13-.228.52-.07.78-.15.05.046.235.1.103.23"
      fill="currentColor"/>
  </symbol>
  <symbol id="harvard-seas" viewBox="0 0 14 16">
    <path
      d="M.31 4.647l-.14.034v.49c.066 1.105.207 2.007.474 2.986h.15C.525 7.17.375 6.273.31 5.168v-.52zM12.236 10.66c-.017.002-.03.003-.047.003-.32.567-.705 1.144-1.167 1.718-.64.797-1.427 1.59-2.393 2.348.014.035.023.073.028.118l.006.04-.002.002c1.746-1.358 2.927-2.84 3.705-4.25l-.03.01c-.028.004-.062.01-.1.012zM6.187 15.382c-1.14-.686-3.125-2.178-4.476-4.84-.01.01-.03.028-.05.04l-.067.05c1.397 2.738 3.455 4.247 4.594 4.92v-.17z" fill="currentColor"/><path d="M13 7.482c-.093.053-.157.134-.235.242-.148.208-.267.37-.313.43H11.094c.04-.078.09-.187.127-.27.027-.062.048-.127.048-.195 0-.064-.022-.135-.078-.184-.056-.05-.135-.075-.237-.083-.112-.008-.205-.013-.285-.013-.153 0-.262.018-.354.07-.093.055-.157.135-.234.244-.15.208-.268.37-.315.43h-1.83v-.13c.06-.045.222-.164.43-.313.108-.076.19-.14.242-.232.053-.092.07-.202.07-.354 0-.08-.005-.173-.013-.286-.007-.104-.032-.182-.08-.238s-.12-.08-.185-.08c-.068 0-.134.022-.194.048-.084.036-.193.09-.273.127v-1.41l.417-.312.243-.182c-.05-.017-.09-.048-.117-.077-.02-.022-.036-.044-.045-.06l-.01.003c-.16.048-.323.086-.416.124-.052.02-.1.03-.145.03h-.002c-.1 0-.173-.05-.216-.096-.017-.018-.028-.036-.038-.05l-.006.002c-.148.043-.297.08-.383.114-.052.02-.1.03-.145.03-.1 0-.174-.05-.215-.096-.022-.024-.037-.047-.047-.065l-.01.003c-.16.05-.33.09-.425.127-.052.02-.1.03-.144.03-.016 0-.03-.002-.044-.004V5.62l-.073-.035-.2-.092s-.126-.046-.193-.047h-.002c-.062 0-.132.022-.18.078-.042.046-.065.107-.077.184l-.006.054c-.007.092-.01.17-.013.24v.046c0 .152.02.262.07.354.035.058.08.104.134.15l.044.035.065.05.173.122c.005.002.01.005.013.01.116.083.204.148.247.18v1.207h-.38c-.047-.064-.165-.225-.314-.433-.026-.037-.052-.07-.077-.102-.048-.06-.096-.105-.157-.14-.054-.03-.112-.05-.18-.06-.053-.007-.11-.01-.176-.01h-.096l-.19.012c-.102.007-.18.033-.236.082-.028.024-.047.052-.06.082-.013.033-.02.068-.02.1v.005c.002.067.02.13.048.19l.034.075c.03.067.065.14.094.198H3.067c-.046-.063-.165-.223-.314-.43-.005-.01-.012-.018-.018-.026-.048-.068-.093-.124-.145-.168l-.006-.005c-.02-.017-.04-.032-.064-.045-.013-.008-.028-.015-.04-.02-.05-.023-.104-.036-.167-.043-.044-.006-.093-.01-.148-.01-.03 0-.06 0-.093.003l-.193.01c-.104.01-.182.035-.238.084-.04.036-.063.083-.072.13-.005.018-.007.036-.007.053 0 .067.02.132.047.194.037.083.09.192.128.272H.644l.025.092c.23.826.522 1.575.857 2.25.01.02.02.04.027.058l.038.075.07-.047.05-.04.034-.035.008-.01.03-.032.003-.006c.012-.013.02-.027.033-.04l.01-.015c.01-.012.02-.024.028-.038 0-.003.003-.004.004-.006l.195-.27.02-.026c.045-.06.078-.107.1-.135h1.226c-.02.038-.04.085-.063.132-.022.05-.045.097-.063.14-.003.006-.006.012-.008.02-.02.045-.034.093-.04.142v.033c0 .04.008.082.028.12.012.023.028.044.05.062.052.045.123.07.214.08h.023c.056.006.107.01.154.01.048.003.092.004.132.004.152 0 .26-.018.354-.07.093-.054.156-.135.233-.242l.128-.18c.086-.12.153-.208.186-.252h1.453v.604c-.08-.04-.188-.09-.272-.127L5.9 10.4c-.05-.02-.1-.036-.153-.04H5.72c-.062-.002-.133.02-.183.077-.044.05-.068.118-.08.206 0 .01 0 .02-.002.03-.008.103-.012.19-.013.265v.076c.002.047.006.09.013.128.01.065.028.122.058.173.04.068.093.12.162.174.024.02.052.038.08.06.093.065.176.126.244.176.086.063.15.11.187.14v1.224l-.147-.07-.065-.03c-.02-.01-.04-.018-.06-.025-.062-.026-.126-.047-.193-.048-.022 0-.046.003-.068.01-.043.01-.083.032-.115.07-.045.05-.07.118-.08.207l-.004.03c-.007.1-.012.187-.012.262v.074c0 .046.005.087.01.126.012.067.03.125.06.177.014.022.028.043.045.063.05.062.115.112.197.17l.273.198.158.116v1.133l.036.02.006.006c.036.02.07.038.103.058.425.24.688.35.692.35l.032.012.032-.02c.558-.346 1.07-.702 1.542-1.067l.03-.024.002-.002-.005-.04c-.007-.046-.017-.085-.03-.12-.015-.034-.033-.064-.057-.09 0 0-.002 0-.002-.002-.048-.05-.113-.07-.174-.07-.02 0-.04.004-.062.008-.045.007-.088.02-.13.04-.083.036-.192.088-.272.126v-1.41l.025-.02c.076-.056.223-.163.406-.294.108-.078.188-.142.242-.233.04-.072.06-.152.068-.255.002-.03.002-.064.002-.1 0-.08-.004-.175-.012-.287-.003-.03-.007-.06-.014-.088-.01-.04-.022-.072-.038-.102-.01-.018-.02-.032-.032-.047l-.018-.018-.002-.002-.008-.006c-.047-.037-.103-.053-.156-.052-.06 0-.118.017-.174.04l-.02.006c-.083.038-.192.09-.272.13V9.93h.573l.197.272.116.16c.036.05.068.094.103.132.02.024.042.046.066.066.02.016.04.03.063.045.092.053.2.07.353.07.08 0 .174-.005.287-.013h.01c.082-.008.147-.027.198-.06.002-.002.005-.003.006-.006.003 0 .006-.003.008-.005l.015-.01c.057-.05.08-.12.08-.184-.002-.063-.02-.124-.043-.182l-.006-.013-.01-.025-.112-.238V9.93h1.213c.047.064.166.226.313.433l.006.006c.073.1.136.178.223.23l.005.005c.093.053.2.07.354.07.067 0 .146-.004.238-.01l.048-.003c.038-.003.07-.01.1-.015l.032-.007.016-.028c.02-.036.04-.07.058-.106.03-.056.06-.11.087-.165l.012-.024-.007-.026c-.008-.028-.018-.057-.03-.085-.036-.083-.088-.192-.126-.27h.35l.02-.044c.002 0 .002 0 .003-.002l.046-.1c.363-.805.607-1.575.766-2.28l.02-.085-.075-.003h-.01l-.065-.003h-.077c-.156-.006-.265.012-.358.065zM.164 0v3.817h13.67V0H.165zM12.35 2.754l.013-1.972c0-.103.085-.04.085-.04l.08.142c-.02.103 0 .167 0 .167l-.014 1.853c.02.148-.053.064-.053.064-.038-.018-.117-.167-.117-.167l.006-.046zM9.614 1.85s-.014-.483 0-.528c0 0 .02-.444.006-.495 0 0 .008-.104-.012-.155 0 0 0-.065.11-.026 0 0 .04.072.257.04 0 0 .158.025.31.006 0 0 .336-.025.42 0 0 0 .132-.025.172.115l-.007.4.004.01c.015-.04.03-.09.068-.063.015.01.025.023.033.037l.006-.41s.028-.077.133-.09c0 0 .165-.02.19-.006.026.013.38.033.48.013.1-.02.118.063.414-.084 0 0 .08.006.08.058 0 0-.027.547 0 .65 0 0 0 1.003-.02 1.074l.013.32s.013.142-.217.155c0 0 .144.018-.763-.008 0 0-.145-.006-.302.064 0 0-.034-.005-.034-.09 0 0 .026-.3 0-.597l-.01-.26c-.018.005-.047.012-.062.005 0 .06-.002.148-.014.235-.01.08.026.457-.007.648 0 0-.005.064-.144.007 0 0-.84.018-.867-.007 0 0-.23.007-.25-.11.002.003.036-.877.015-.91zM9.49.743s.046 0 .04.077l-.014 1.942s.02.128-.09.212c0 0-.062.07-.062-.04L9.39.954c.002.002.008-.146.1-.21zm-1.803.01c.11-.154.177.155.177.155l-.027 1.933c-.007.065-.02.103-.02.103-.086.02-.137-.16-.137-.16L7.687.754zM6.615 2.598l.013-.816C6.622 1.75 6.643.78 6.643.78c.013-.103.248-.097.248-.097.625.02.61-.032.61-.032.114-.05.12.007.12.007.015.026-.012.283-.012.283.013.032-.015 1.832-.015 1.832-.02.104-.085.07-.085.07-.084.065-.504.026-.504.026-.132-.02-.343.033-.343.033-.032.04-.07-.018-.07-.018l.025-.284zm-1.032.142l.02-2.062c-.005-.053.073-.06.073-.06l.196.05c.047.04.546 0 .546 0 .112.01.118.156.118.156.026.347-.026 2.02-.026 2.02-.007.095-.086.017-.086.017-.32-.01-.446-.004-.446-.004-.046.02-.236 0-.236 0-.164-.02-.16-.116-.16-.116zM5.503.734s.016.128.016.16l-.022 1.86s.02.14-.105.21c0 0-.032.014-.04-.077L5.368.96s.013-.238.137-.226zM3.758.77c.112-.154.178.155.178.155L3.907 2.86c-.006.063-.018.1-.018.1-.087.02-.14-.16-.14-.16L3.757.77zm-1.07 1.835L2.7 1.79c-.008-.032.013-1.003.013-1.003.013-.103.25-.096.25-.096.624.02.61-.032.61-.032.11-.05.12.007.12.007.012.026-.016.283-.016.283.015.032-.012 1.83-.012 1.83-.02.104-.085.072-.085.072-.086.065-.506.025-.506.025-.132-.02-.343.033-.343.033-.03.038-.07-.02-.07-.02l.027-.283zm-1.033.15L1.674.69c-.007-.05.072-.058.072-.058l.196.052c.046.038.546 0 .546 0 .112.006.12.154.12.154.025.347-.028 2.017-.028 2.017-.007.098-.086.02-.086.02-.32-.012-.446-.006-.446-.006-.046.02-.236 0-.236 0-.165-.018-.158-.116-.158-.116zM1.574.75s.014.128.014.16l-.02 1.858s.02.142-.105.213c0 0-.032.013-.04-.077L1.44.973c0 .002.013-.235.137-.223zm.822 2.526H1.37c-.13-.007-.117-.102-.117-.102V2.93c.006-.13-.13-.156-.13-.156-.192.04-.238-.076-.238-.076-.006-.135.218-.123.218-.123.184 0 .13-.16.13-.16l.014-.97c-.014-.097-.25-.097-.25-.097-.152.026-.112-.117-.112-.117.073-.07.23-.062.23-.062.138.006.138-.142.138-.142L1.26.762c.15-.135.177-.026.177-.026-.085.13-.066.445-.066.445l-.005-.024C1.37 1.186 1.358 3 1.358 3c.013.2.15.154.15.154l.854.013c.08 0 .086.05.086.05 0 .066-.052.06-.052.06zm-.11-.207h-.678c-.1.02-.072-.07-.072-.07.06-.11.125-.084.125-.084l.15.038c.053.013.658.007.658.007.19.104 0 .148 0 .148l-.183-.04zm.393.327c-.132 0-.146-.123-.146-.123-.006-.16.12-.16.12-.16.06-.025.13.135.13.135.014.128-.105.147-.105.147zm.07-.372s.06-.063.1-.063c0 0 .658.057.77-.02 0 0 .098-.02.125 0 0 0 .1.077.1.123 0 0-.008.057-.127.025l-.78.006c-.002 0-.207.045-.187-.07zM4.126 1.49l-.02.932s-.014.16.145.154c0 0 .164-.006.196.045 0 0 .112.162-.13.148 0 0-.15-.007-.184.02 0 0-.028.032-.047.333 0 0 .013.182-.125.163 0 0-.914.013-1-.007 0 0-.09.026-.103-.045 0 0 0-.05.09-.05l.922-.006s.084.044.084-.11c0 0 .033-.7.037-1.472.002-.23.012-.47.003-.694 0 0-.02-.096-.047-.115 0 0 0-.103.113-.065 0 0 .098.007.07.155l.007.225s-.02.097.158.07c0 0 .177.026.184.09 0 0 .052.13-.16.117h-.15s-.065.038-.045.114zm2.2 1.77H5.302c-.13-.006-.117-.102-.117-.102v-.244c.007-.128-.13-.154-.13-.154-.19.038-.238-.078-.238-.078-.006-.135.217-.123.217-.123.184 0 .132-.16.132-.16l.013-.97c-.013-.097-.25-.097-.25-.097-.152.024-.113-.117-.113-.117.073-.07.23-.064.23-.064.138.007.138-.14.138-.14L5.19.747c.15-.135.177-.026.177-.026-.086.13-.066.445-.066.445s-.01-.057-.005-.025c.006.032-.006 1.844-.006 1.844.01.2.15.155.15.155l.853.01c.08 0 .085.052.085.052 0 .066-.052.058-.052.058zm-.11-.188h-.678c-.098.02-.072-.07-.072-.07.06-.11.125-.084.125-.084.027.006.15.04.15.04.053.012.658.005.658.005.19.103 0 .148 0 .148l-.183-.038zm.382.328c-.133 0-.146-.123-.146-.123-.006-.16.12-.16.12-.16.06-.026.13.134.13.134.014.13-.103.15-.103.15zm.084-.384s.06-.064.1-.064c0 0 .657.058.77-.02 0 0 .1-.02.125 0 0 0 .098.078.098.123 0 0-.006.058-.124.026l-.783.007c-.002 0-.206.045-.186-.07zm1.375-1.543l-.02.933s-.014.16.145.153c0 0 .165-.006.197.046 0 0 .11.16-.132.148 0 0-.15-.007-.184.02 0 0-.025.03-.046.333 0 0 .014.18-.124.16 0 0-.915.013-1-.006 0 0-.09.027-.104-.044 0 0 0-.05.093-.05l.92-.007s.084.043.084-.11c0 0 .033-.7.038-1.473 0-.23.01-.47.002-.694 0 0-.02-.096-.046-.115 0 0 0-.103.11-.064 0 0 .1.007.073.155l.007.223s-.02.098.16.07c0 0 .175.027.183.09 0 0 .053.13-.16.116h-.148c0-.003-.067.037-.047.113zm2.644 1.77s0 .046-.072.032c0 0-.546.052-1.04.033 0 0-.327.02-.348-.02 0 0-.053-.006-.053-.192 0 0 0-.173-.013-.206 0 0 .013-.09-.15-.11 0 0-.23.04-.236-.096 0 0 .03-.096.256-.083 0 0 .164.028.13-.1l.02-.952s.02-.167-.092-.175c0 0-.104-.005-.138.008 0 0-.19 0-.177-.11 0 0 .065-.115.256-.088 0 0 .145.026.15-.135 0 0-.006-.328.073-.34 0 0 .164.005.118.05 0 0-.08.142-.072.174l-.006.43s-.007.277 0 .31c.007.03-.007.84-.007.84s-.007.156 0 .208v.346s-.014.154.104.116c0 0 1.156-.025 1.23-.006 0 0 .104.018.065.07zm-.02-.15l-1.078-.014-.118.007c-.074-.012-.005-.1.046-.162l.052-.045s.092.097.243.09l.894.013s.098.007.092.058c0 0-.014.078-.132.052zm.29.28c-.066.012-.14-.01-.158-.09-.02-.085.014-.188.104-.207 0 0 .112.02.112.12 0 .105.006.163-.06.176zm.08-.352s.116-.076.162-.063c0 0 .598.038.782.006.184-.033.072-.006.072-.006s.157 0 .204-.058c0 0 .046-.052.072-.007l.1.142s.005.064-.106.057c0 0-1.07 0-1.104.007 0 0-.204.03-.183-.08zM13 2.77s-.276-.006-.257.07c0 0-.02.182-.033.212 0 0 .027.147-.005.174 0 0-.02.083-.197.07 0 0-1.132-.006-1.308.007 0 0-.106-.012-.08-.103 0 0 .08-.038.13-.025.055.013.823-.006.823-.006s.335.025.388-.02l.08-.026s.032-.04.032-.09c0-.05.008-.223.008-.223l.02-.066s-.008-.062 0-1.78c0 0 .025-.134-.06-.217 0 0 0-.05.025-.044.014.002.017.004.017.004.018-.004.117-.027.135.014 0 0 .053.154.007.244 0 0-.014.186.085.186 0 0 .038.04.118.02 0 0 .17.02.17.072 0 0 0 .115-.118.095l-.157.013s-.105.02-.092.14c.013.123-.006.998-.006.998s0 .102.164.095c0 0 .204-.004.204.052 0 0 .053.13-.092.136z" fill="currentColor"/><path d="M6.893 2.346l.19-.007s.073.012.073-.046c0 0-.053-.058-.065-.09 0 0-.006-.61 0-.68l.027-.084s.08-.04.032-.11c0 0-.047-.02-.094-.014l-.065-.012s-.13.007-.11.058l.06.13v.635s-.02.115-.086.147c0 0-.02.065.04.072zM5.81 1.395s.052.058.052.09l-.008.27.007.372s-.006.083-.06.115c0 0-.04.064 0 .084l.212.02s.065-.04.026-.09l-.06-.096.014-.2s.04-.045.06-.02l.236.36s.105.07.132 0c0 0 .007-.025-.026-.05l-.19-.296.013-.103s.204-.076.184-.263c0 0 .04-.186-.222-.27H5.9s-.11-.02-.124.013c0 0-.014.057.033.065zm.21.013s.13-.033.157.005c.026.04.19.18.026.334 0 0-.072.135-.197.04 0 0 0-.194-.006-.334l.02-.045zM1.832 1.464c.014.026.27.817.27.817.112.104.126-.024.126-.024.08-.13.222-.753.222-.753l.06-.122c-.02-.05-.158-.037-.158-.037-.06.006-.02.07-.02.07l.04.136-.133.455c-.047.11-.086-.04-.086-.04-.138-.392-.15-.493-.15-.493.104-.07.025-.136.025-.136l-.243-.006c-.092.006-.04.078-.04.078l.085.056zM2.87 1.446s.02.012.02.037l-.007.683-.02.05s-.065.083-.02.09c0 0-.058.04.422.045 0 0 .184.033.138-.2 0 0-.02-.082-.085.04 0 0-.02.102-.256.07 0 0-.053-.045-.053-.095v-.283s-.008-.07.103-.064c0 0 .124.078.145.045 0 0 .047-.103 0-.167 0 0-.06-.006-.065.02 0 0-.04.077-.15.03 0 0-.053-.103-.02-.185 0 0-.014-.16.098-.147 0 0 .132.026.146.064 0 0 .032.078.065-.013l-.032-.11s-.02-.044-.052-.032c0 0-.223.033-.25.007l-.178.02s-.026.064.053.096zM9.932 1.438l.098-.09.08-.006c.045.018.032.09.032.09-.015.032-.015.572-.015.572.007.115-.025.162-.025.162-.092.115 0 .115 0 .115.04-.005.203.007.203.007.08.006.047-.083.047-.083-.04-.025-.066-.096-.066-.096l.007-.103c.02-.064 0-.54 0-.54.007-.148.092-.104.092-.104.026.072.08.09.08.09.085-.02.064-.166.064-.166.013-.058-.033-.064-.033-.064l-.113.05h-.31c-.05-.012-.11-.05-.11-.05l-.04.006-.06.154v.05c.046.104.068.008.068.008zM11.686 2.157s-.105-.05-.1-.108c0 0-.033-.072-.072-.06 0 0-.045.014-.025.225 0 0 0 .085.097 0l.053.013s.18.142.33-.032c0 0 .163-.147.046-.327 0 0-.086-.13-.237-.194 0 0-.146-.065-.178-.173 0 0 .045-.195.223-.09 0 0 .066.076.105.09 0 0 .052 0 .04-.116l-.016-.097s-.012-.07-.104 0c0 0-.086.032-.106 0 0 0-.25-.02-.256.244 0 0-.026.18.25.296 0 0 .204.096.19.22 0-.002-.026.217-.242.107zM10.956 1.302l.02-.096v-.014c-.008-.014-.02-.027-.033-.038-.038-.026-.054.022-.068.062l.036.12.046-.034zM10.884 1.92v.066c.015.007.044 0 .06-.005v-.067l-.06.006zM10.62 2.12s-.02.076-.092.09c0 0-.04.045.02.057 0 0 .126.04.164-.012 0 0 .046.025 0-.136 0 0 .033-.193.113-.193 0 0 .045.026.052.05 0 .005.004.008.007.01V1.92l.058-.006.003.07.01-.004s.048-.06.073-.045c0 0 .06.083.065.134 0 0 .027.128-.006.16 0 0-.032.026.046.04 0 0 .15.024.197.005 0 0 .11-.033 0-.07 0 0-.06-.052-.092-.117 0 0-.112-.495-.243-.835 0 0-.003-.03-.02-.06v.014l-.02.096-.047.033-.036-.12c-.003.01-.006.018-.01.024.002 0-.21.835-.24.88zm.322-.548s.072.193.072.225-.006.064-.046.064-.144-.005-.144-.005l-.04-.064.052-.21.073-.045.032.037zM12.57 9.93c-.032.066-.064.133-.098.2l-.012-.027c.017.034.03.068.045.1.012.028.02.056.028.084l.008.027.19-.384h-.16zM13.83 4.728l-.003-.615-.066.037-.032.018c-.01.005-.034.017-.06.027-.024.01-.047.022-.064.032l-.05.027-.006.002c-.044.024-.085.046-.118.066-.05.028-.068.047-.086.06-.056.04-.074.097-.074.143v.008l-.006.062c.004.013.002.023.006.03.003.006.005.018.014.032.01.017.022.048.04.068.043.046.114.107.215.107.044 0 0-.02.267-.042v-.004l-.06-.004-.026-.003c0 .04-.014.39-.014.39 0 .595-.07 1.366-.262 2.244l.07.002.07.002c.19-.878.252-1.65.252-2.25l-.006-.44zm-.136-.094l-.06.02c-.04.016-.07.02-.095.02-.058 0-.092-.023-.12-.05l-.007-.01c.063-.024.122-.05.173-.084.034-.022.065-.048.09-.08l.018-.03v.214zM.31 4.647s-.03-.09-.03-.105c0-.03.008-.065.03-.1l-.006.01v-.308H.33c.053 0 .104.012.147.04.03.02.06.046.082.087l-.067.037.118-.065.066-.036C.646 4.146.6 4.1.55 4.068s-.107-.055-.163-.056H.17v.67c.13-.03.123-.03.14-.035zM3.166 4.26c0 .002 0 .004.003.007v.007c.01.02.012.042.012.062v-.017c.11-.06.224-.116.288-.14.046-.018.1-.03.148-.03s.096.012.134.035c.025.016.05.037.068.068l.055-.028s.002 0 .003-.002l.06-.032c-.03-.052-.07-.092-.117-.12-.06-.038-.133-.053-.202-.053-.07 0-.137.015-.197.04-.07.026-.174.078-.28.133l.026.073zM3.97 4.25l.01.02v.002c.007.022.01.043.01.063v-.023c.105-.057.214-.11.276-.134.047-.018.1-.03.15-.03.08.002.15.025.198.1l-.038.02.04-.022.057-.03c.003 0 .006-.003.008-.004l.054-.028c-.076-.122-.204-.172-.318-.17-.07 0-.138.016-.198.04-.072.027-.175.078-.28.134l.03.06zM4.766 4.246c.004.007.007.017.01.027.005.013.007.025.01.037.103-.056.207-.108.27-.13.045-.02.1-.03.148-.03.052 0 .1.01.14.037.026.018.052.043.072.08-.04.02-.077.04-.108.06-.02.01-.035.02-.048.027l.048-.028c.044-.026.1-.057.162-.09l.022-.013.035-.02.006-.002c-.03-.055-.07-.098-.118-.128-.065-.04-.14-.058-.21-.058-.07 0-.14.016-.2.04-.068.026-.168.075-.27.128l.03.064zM5.13 4.52c-.157.05-.33.09-.445.135-.04.016-.07.02-.094.02-.057 0-.09-.023-.117-.05 0-.002-.002-.004-.003-.005h.005c-.027.01-.056.02-.085.028l-.054.016c.01.015.022.032.04.05.04.046.113.096.214.096.045 0 .093-.01.145-.03.093-.037.26-.075.418-.124 0 0-.016-.123-.024-.135zM5.568 4.285c.005.017.007.034.007.05 0 .035-.01.068-.027.096.016-.027.028-.06.027-.094V4.33c.117-.062.242-.124.312-.15.047-.02.1-.03.15-.03.05 0 .096.01.135.035.025.017.05.04.07.072-.013.006-.024.013-.036.02l.06-.033.032-.017.054-.03.008-.003c-.03-.054-.072-.096-.118-.124-.063-.04-.136-.055-.205-.055-.07 0-.14.015-.2.04-.066.025-.167.074-.27.127v.103z" fill="currentColor"/><path d="M5.22 4.633l.078-.03.03-.012c.004 0 .007-.002.01-.003.014-.006.026-.01.04-.018 0 0 0-.002.003-.003.012-.005.022-.01.033-.017.003 0 .006-.003.008-.004l.034-.02c.033-.023.062-.048.084-.08.004-.004.008-.01.01-.015.016-.027.028-.06.028-.094 0-.017-.003-.034-.007-.05V4.18l-.037.02-.006.003-.034.018-.023.013c-.062.033-.117.064-.162.09-.02.01-.034.02-.047.028-.02.012-.034.02-.045.03-.007.004-.015.01-.02.016-.003 0-.005.003-.006.005-.006.004-.01.01-.013.013l-.006.006c-.003.004-.006.01-.01.013l-.004.007-.008.014-.003.006-.006.015-.003.004-.006.02c0 .005 0 .01-.002.017v.022c0 .016 0 .03.004.042l.017.07v.002l.012-.004.057-.02zM6.394 4.263l.004.013c.007.02.01.04.01.06V4.32c.11-.06.224-.116.288-.14.047-.02.1-.03.15-.03s.098.01.137.035c.028.02.055.044.075.084l-.065.036c.022-.012.046-.025.07-.04l.047-.026h.002l.064-.037c-.03-.057-.073-.1-.12-.13-.065-.043-.14-.06-.21-.06-.07 0-.138.016-.2.04-.068.028-.17.08-.275.134l.024.076z" fill="currentColor"/><path d="M5.944 4.597c-.005-.015-.007-.033-.007-.055V4.53c-.03.008-.318.083-.42.125-.038.015-.07.02-.095.02-.057 0-.09-.024-.117-.052l-.014-.016c.004 0 .006-.002.008-.003l-.08.03-.058.018c.01.017.024.04.046.062.042.046.115.095.215.095h.002c.044 0 .093-.01.143-.03.09-.036.248-.073.398-.118l-.02-.065zM6.398 4.276l-.004-.013-.024-.076-.01.005-.008.004-.054.03-.03.016c-.022.01-.042.023-.062.033L6.2 4.28c-.01.004-.02.01-.03.016l-.016.01c-.004 0-.008.003-.01.005l-.02.012c-.042.024-.07.042-.09.054-.004.002-.008.004-.01.007-.008.005-.015.01-.022.017-.002 0-.002.003-.004.004l-.015.015c-.002 0-.003.003-.004.004-.006.005-.01.01-.012.015l-.004.005-.008.014-.003.006-.006.013-.003.006c0 .005-.003.01-.004.014 0 .002 0 .004-.002.006v.014c-.002 0-.002.003-.002.005v.016c0 .02.003.04.007.054l.02.065v.002l.01-.003.054-.02.084-.03c.012-.003.022-.008.033-.012.004 0 .008-.002.01-.004.015-.005.028-.01.04-.018l.007-.002.032-.017c.003 0 .006-.003.01-.005l.034-.02c.036-.023.066-.05.09-.08.01-.015.02-.03.027-.047.008-.02.014-.045.014-.07 0-.02-.002-.04-.01-.06zM7.208 4.278c.006.02.01.038.01.058 0 .04-.016.08-.037.11l-.024.03c.01-.01.018-.02.025-.03.022-.03.038-.07.038-.11.12-.064.25-.13.32-.157.046-.02.1-.03.148-.03.082.002.15.024.2.098l-.036.02c.03-.017.062-.034.095-.05v-.002l.048-.025.013-.005c-.077-.122-.204-.17-.32-.17-.068 0-.137.016-.196.04-.077.03-.193.088-.306.147l.024.076zM6.78 4.58c-.002-.012-.003-.024-.003-.038V4.52c-.028.006-.34.09-.453.135-.037.015-.068.02-.093.02-.056 0-.09-.024-.117-.052l-.008-.01c.002 0 .005 0 .007-.002l-.084.03-.055.02c.01.015.023.034.042.055.036.04.094.08.172.092l.042.003c.044 0 .092-.01.144-.03.095-.038.264-.077.423-.127L6.78 4.58z" fill="currentColor"/><path d="M7.208 4.278L7.184 4.2l-.008.004-.065.035c-.016.01-.032.018-.047.026-.024.014-.05.027-.07.04-.003 0-.005.003-.007.004l-.03.018c-.04.022-.065.038-.084.05l-.008.006-.02.016-.008.008-.01.01-.006.01c-.003.002-.006.005-.008.01l-.005.007-.006.01c0 .004-.002.006-.004.01l-.006.013-.002.005c-.003.007-.005.013-.006.02 0 0 0 .003-.002.005v.01c-.003.01-.003.017-.003.024 0 .014.002.026.004.037l.018.072.012-.002.06-.02.075-.03.03-.012c.004 0 .007-.002.01-.004.013-.005.025-.01.038-.017l.004-.002c.01-.005.02-.01.03-.017.004 0 .006-.003.01-.005l.03-.02H7.1l.005-.005c.02-.013.036-.028.05-.043.01-.01.02-.02.025-.03.022-.03.037-.068.037-.11 0-.02-.003-.038-.01-.057zM8.037 4.246l.01.024.002.002c.006.02.01.042.01.062 0-.01 0-.02-.003-.028.103-.053.21-.105.268-.127.047-.02.1-.03.15-.03.05 0 .098.01.138.036.027.018.052.043.072.08-.01.006-.02.01-.03.017l.085-.046.015-.008.05-.027c-.032-.057-.073-.1-.118-.13-.065-.042-.14-.058-.21-.058s-.14.015-.2.04c-.068.025-.168.074-.27.128l.03.063z" fill="currentColor"/><path d="M7.576 4.605c-.006-.015-.01-.036-.01-.063v-.006c-.033.01-.303.08-.4.12-.037.014-.068.02-.095.02-.055 0-.09-.025-.116-.053l-.016-.02c.002 0 .004 0 .006-.002l-.076.03-.06.02c.01.018.026.04.05.064.04.046.113.096.212.096.046 0 .094-.01.146-.03.086-.034.235-.07.382-.114l-.022-.06zM8.05 4.273h-.002V4.27l-.01-.023-.03-.063h-.003l-.013.006-.047.025-.095.052-.013.007c-.012.006-.022.012-.03.018-.004 0-.007.003-.01.005l-.037.02-.08.047-.027.018c-.024.018-.042.037-.056.058v.002c-.005.007-.01.013-.012.02l-.002.004-.007.015c0 .003 0 .006-.002.008L7.57 4.5l-.002.01-.002.01v.016l-.002.006c0 .026.006.047.012.062l.02.06H7.6l.007-.002.054-.018.084-.03c.013 0 .026-.006.038-.01l.01-.005.042-.02c.002 0 .005 0 .006-.002.012-.005.023-.01.034-.017.004 0 .007-.002.01-.004l.037-.02c.033-.02.062-.043.085-.07l.012-.012.008-.013c.02-.03.033-.065.033-.103 0-.022-.002-.043-.01-.064zM8.77 4.228h.012c.006.002.013 0 .03.014.008.004.02.017.024.03.007.022.01.042.01.063V4.33c.118-.062.243-.125.312-.152.048-.018.1-.03.15-.03.05 0 .097.012.135.036.026.017.05.04.07.072l.057-.03.062-.033c-.032-.054-.073-.095-.118-.123-.065-.04-.137-.056-.206-.056-.07 0-.138.015-.198.04-.077.03-.193.087-.306.147l-.05.027h.017zM10.376 4.22h-.003.003l.07-.038.025.075s.004.005.007.015c.006.015.008.03.01.043v-.002c.106-.057.215-.11.276-.134.048-.02.1-.03.15-.03.08 0 .15.024.2.097l.04-.022.018-.01.06-.03c-.074-.122-.2-.172-.316-.17-.07 0-.14.015-.198.04-.07.026-.174.078-.278.133-.02.01-.042.02-.062.032zM.573 4.81c.046 0 .093-.01.145-.03.086-.034.234-.07.382-.114l-.02-.06c-.008-.015-.013-.037-.013-.064v-.006c-.02.005-.3.08-.4.12-.036.014-.067.02-.093.02-.057 0-.09-.025-.117-.053l-.016-.02c-.02.01-.13.047-.13.047.01.018.027.04.05.064.04.046.114.095.213.095zM1.188 4.015c-.07 0-.138.015-.198.04-.075.028-.2.09-.313.152l.04.13c.116-.06.254-.13.322-.158.046-.02.1-.03.148-.03.082.002.15.025.2.098l-.04.022.16-.085c-.077-.122-.204-.173-.32-.17zM2.717 4.596c-.005-.014-.008-.032-.008-.054V4.53v-.002c-.04.012-.32.087-.42.127-.04.015-.07.02-.096.02-.056 0-.09-.024-.117-.052-.005-.006-.01-.01-.014-.017h.003l-.075.026-.057.02c.01.017.024.04.045.062.042.045.115.095.215.095.046 0 .094-.01.145-.03.09-.036.247-.073.398-.118l-.02-.066zM4.305 4.605c-.006-.014-.01-.036-.01-.063v-.006c-.04.01-.302.08-.4.118-.036.015-.067.02-.093.02-.057 0-.09-.024-.117-.052 0-.002-.003-.004-.005-.006l-.078.027-.058.02c.01.016.025.036.043.054.04.046.11.093.21.093h.007c.044 0 .09-.01.143-.03.085-.035.234-.07.38-.114l-.022-.06zM3.515 4.6c-.005-.014-.01-.033-.01-.057v-.008c-.05.013-.31.083-.406.12-.04.015-.07.02-.096.02-.057 0-.09-.024-.117-.052l-.008-.01s.003 0 .005-.002l-.083.03-.056.018c.01.016.023.036.042.056.042.046.114.095.215.095.045 0 .094-.01.145-.03.088-.035.24-.07.387-.116l-.02-.063zM.677 4.207H.672l-.06.035-.12.065-.005.004-.028.017c-.002 0-.003 0-.004.002-.043.023-.072.04-.09.052l-.02.02H.343c-.006.005-.012.01-.017.017l-.003.002c-.005.006-.01.012-.012.017 0 0 0 .002-.003.004-.023.034-.034.064-.034.098 0 .024.032.107.032.107.002 0 .11-.04.133-.046h.005l.035-.015.007-.004.038-.018h.003L.56 4.55l.01-.005.03-.02c.008-.005.016-.01.022-.016.038-.03.07-.067.086-.112.006-.018.01-.038.01-.058v-.002l-.04-.13z" fill="currentColor"/><path d="M1.55 4.275c-.005-.015-.01-.022-.01-.024l-.026-.07-.007.004-.06.032-.012.006c-.03.016-.06.03-.086.047-.003 0-.005 0-.007.002l-.034.02c-.005 0-.01.004-.013.005l-.03.018-.006.003-.03.018c-.036.02-.06.036-.075.046-.01.006-.015.012-.022.018l-.002.002-.016.017-.003.003-.01.016c-.002 0-.003.003-.004.005l-.01.015c0 .002 0 .004-.002.006l-.006.014-.002.008-.005.012v.008l-.002.012V4.54c0 .028.004.05.01.063l.02.06h.01l.054-.02c.028-.007.057-.017.085-.026l.037-.014.01-.005.042-.018c.002 0 .004 0 .006-.002.012-.005.023-.01.034-.017.004 0 .007-.002.01-.004l.037-.02c.037-.024.07-.05.096-.082.014-.02.025-.04.033-.065.005-.018.008-.036.008-.054v-.028c-.003-.01-.005-.022-.01-.033zM2.066 4.605l.038-.015.006-.003.04-.018v-.002l.037-.018c0-.002.003-.003.005-.004l.034-.02c.034-.023.063-.048.086-.08.02-.027.034-.06.037-.098v-.012c0-.017-.004-.034-.008-.05l-.022-.057-.013-.03-.003.002-.062.034-.01.006c-.008.004-.017.008-.024.013l-.092.05-.036.022-.042.024-.043.028h-.003l-.005.005-.02.017-.006.006-.012.012-.006.008-.008.012-.005.007c-.004.004-.007.01-.008.013l-.005.007-.005.013-.003.007c-.004.006-.005.012-.007.017v.005l-.003.015-.002.02c0 .017.002.03.005.043l.017.07v.002l.013-.005.058-.02c.027-.008.052-.018.076-.027zM3.17 4.27V4.27l-.004-.007-.026-.072-.007.004-.005.003-.04.022-.017.01c-.025.012-.05.026-.074.04l-.034.017-.017.01-.018.01-.03.018-.062.036c-.017.01-.03.018-.038.025l-.006.005-.015.012-.007.008-.01.01-.007.01-.008.01-.006.01-.006.01c0 .004-.002.006-.004.01l-.005.01c0 .004 0 .007-.002.01 0 .004-.003.008-.004.012l-.002.008-.002.012v.01l-.002.014c0 .02.004.04.008.053l.02.065.01-.002.056-.02c.028-.008.057-.018.083-.028.012-.004.022-.01.034-.013l.01-.005.04-.018s.003 0 .004-.002c.012-.006.023-.01.034-.018.004 0 .006-.003.01-.004.01-.008.022-.014.033-.022.036-.022.067-.047.092-.08l.02-.03c.013-.026.02-.054.02-.084 0-.02-.003-.042-.01-.062V4.27zM3.99 4.336c0-.02-.003-.042-.01-.062v-.002l-.01-.023-.032-.062-.06.032c-.002 0-.002 0-.003.002l-.056.03c-.013.006-.024.013-.036.02-.004 0-.008.003-.012.005-.01.005-.02.01-.028.016l-.012.007c-.01.006-.02.01-.027.016-.003 0-.006.002-.008.004-.045.026-.078.046-.096.06 0 0-.004 0-.005.003-.017.012-.03.024-.04.037-.002 0-.003.002-.003.003l-.014.017c0 .002-.002.004-.003.005l-.01.015c0 .003 0 .005-.002.007l-.005.014-.003.01c0 .003-.003.007-.004.01v.008l-.002.012v.008c-.002.002-.002.004-.002.005v.01c0 .023.005.043.01.057l.016.065h.003l.01-.003.055-.018.085-.03.035-.014c.003 0 .007-.002.01-.004.015-.005.028-.012.04-.018.003 0 .005 0 .006-.002l.035-.017.01-.006.037-.02c.025-.017.048-.034.07-.055 0-.002 0-.003.002-.005 0 0 0-.002.002-.002l.018-.02c0-.003.004-.007.005-.01.015-.02.024-.042.03-.066l.005-.025V4.35v-.014zM4.786 4.31c-.002-.012-.005-.024-.01-.035-.003-.013-.006-.022-.01-.03l-.03-.062h-.003l-.05.028-.01.006-.056.03-.04.023H4.57c-.01.008-.023.016-.036.022l-.008.005c-.013.008-.026.015-.04.02-.025.017-.048.03-.065.04l-.038.026c-.01.005-.016.012-.022.018l-.003.002-.016.017s0 .003-.002.004c-.004.005-.01.01-.012.016l-.004.006-.01.014v.008l-.007.012c-.002.003-.002.006-.003.01 0 .003-.003.007-.004.01 0 .003 0 .006-.002.01 0 .003 0 .006-.002.01V4.54c0 .028.005.05.01.064l.022.06.008-.002.054-.018.085-.03.038-.014h.01l.043-.02.004-.002c.012-.005.023-.01.035-.017.004 0 .006-.002.01-.004l.037-.02c.036-.024.068-.05.094-.082.026-.032.043-.074.043-.118V4.31zM8.848 4.335c0-.02-.004-.042-.01-.062-.007-.014-.018-.027-.026-.032-.017-.01-.024-.01-.03-.01l-.01-.002h-.016l-.016.008c-.03.015-.057.032-.084.046l-.013.008-.02.01-.017.01-.017.01-.012.006-.038.023c-.024.013-.042.024-.054.032-.008.006-.015.012-.02.018-.003 0-.004.002-.006.004l-.014.014c0 .002-.004.004-.005.006l-.01.014s0 .004-.003.006l-.008.013-.004.007-.007.014c0 .002-.002.003-.003.005-.004.014-.008.026-.01.038v.02c0 .017.002.03.005.043l.018.07v.002l.01-.004.06-.02c.026-.008.052-.018.076-.027.012-.003.023-.008.035-.013.004 0 .007-.002.01-.003.013-.005.025-.012.038-.018l.003-.002.034-.018c.003 0 .006-.002.008-.004l.034-.02c.03-.022.057-.045.08-.073l.004-.007.006-.01c.02-.028.03-.063.032-.1zM10.487 4.315c-.002-.014-.005-.028-.01-.042l-.006-.016-.024-.075-.07.038-.072.04c-.003 0-.006.002-.01.004l-.013.007c0 .002-.002.003-.005.004l-.035.02c-.003 0-.006.003-.008.004l-.036.02-.03.018c-.002 0-.004.002-.006.004l-.052.03c-.006.005-.012.01-.017.012l-.002.002-.02.016-.006.007-.01.012c-.004.002-.006.004-.008.007-.003.004-.006.007-.008.012-.003 0-.004.004-.006.008l-.007.01c-.002.004-.004.007-.004.01l-.007.01c0 .004-.002.007-.003.01.002.005 0 .008 0 .012-.002.003-.002.006-.003.01 0 .003 0 .006-.002.01v.014c0 .003-.002.006 0 .01 0 .023.003.042.008.057l.02.063h.002l.01-.002.054-.017.083-.03c.012-.003.024-.008.036-.013.003 0 .005-.002.01-.004l.04-.018c.002 0 .003 0 .005-.002.012-.006.023-.01.035-.017l.01-.006.035-.02c.024-.016.046-.033.065-.052l.028-.03c.02-.028.037-.062.04-.1v-.017-.02zM11.286 4.335c0-.008 0-.017-.002-.025-.002-.013-.005-.025-.01-.038V4.27l-.013-.026-.03-.06-.06.032-.017.01-.042.022-.04.022-.04.023c-.003 0-.005.002-.007.003l-.038.022c-.053.03-.088.05-.106.064h-.002c-.023.018-.04.038-.055.058v.002c-.005.006-.01.012-.012.02v.004c-.004.005-.007.01-.008.015 0 .003-.002.006-.003.008l-.005.012c0 .003 0 .006-.002.01v.01c-.002.003-.002.006-.002.01v.011c0 .027.006.05.01.063h.002l.02.06.01-.002.053-.016.084-.028.04-.015s.004 0 .007-.002l.043-.02h.004l.037-.018c.004 0 .006-.003.01-.004l.037-.02c.037-.024.07-.05.095-.082.01-.014.02-.03.028-.046.01-.023.015-.047.016-.073zM.677 4.206l.007-.003c.113-.06.23-.12.307-.15.062-.023.13-.04.2-.04.114 0 .24.05.317.17.102-.054.203-.103.272-.13.06-.024.127-.04.198-.04.07 0 .146.017.21.06.047.03.088.072.12.128l.034-.02c.1-.052.2-.102.27-.128.06-.022.127-.038.198-.038.07 0 .142.016.205.056.047.028.087.07.118.122l.007-.004c.105-.055.21-.107.28-.134.06-.024.13-.04.197-.04.07 0 .14.015.204.054.047.027.086.067.118.12.104-.056.208-.107.28-.135.06-.024.127-.04.197-.04.115 0 .243.05.318.17h.002c.102-.055.2-.104.27-.13.062-.024.13-.04.2-.04s.145.017.21.06c.047.03.088.072.118.128l.035-.02c.102-.05.203-.1.27-.127.06-.023.13-.038.2-.038.068 0 .14.015.204.055.046.028.087.07.117.122l.01-.006c.105-.054.208-.106.277-.132.06-.024.128-.04.198-.04s.145.017.21.06c.048.03.09.073.12.13l.008-.004c.113-.06.23-.117.305-.146.06-.024.128-.04.198-.04.115-.002.242.048.318.17l.002-.002c.1-.053.2-.103.27-.128.06-.024.13-.04.2-.04s.144.017.21.058c.045.03.086.074.117.13.112-.06.23-.12.305-.15.06-.022.128-.037.2-.037.068 0 .14.016.205.056.046.028.086.07.117.122.107-.057.215-.11.287-.14.06-.022.13-.038.198-.038s.14.015.204.054c.045.027.085.067.116.12.104-.056.21-.108.278-.135.06-.024.128-.04.198-.04.115-.002.242.048.317.17.102-.055.202-.105.27-.13.062-.025.13-.04.2-.04s.146.016.21.058c.05.032.09.076.12.13.113-.06.23-.117.306-.146.06-.024.128-.04.198-.04.068 0 .142.016.206.056.045.028.086.07.117.122.107-.057.215-.11.287-.14.06-.022.128-.038.198-.038s.142.016.206.056c.047.03.088.07.12.126h.002l.057-.028.1-.055v-.1H.387c.056.006.11.023.162.055s.094.078.127.138z" fill="currentColor"/><path d="M2.188 4.072c-.064-.042-.14-.058-.21-.058s-.14.015-.2.04c-.067.025-.165.073-.264.126l.028.07.01.024.007.033c.103-.055.207-.107.268-.13.047-.018.1-.03.15-.03.052 0 .1.012.138.038.027.018.053.043.073.08l-.03.015c.016-.008.03-.017.048-.025l.023-.013.012-.006.064-.035c-.03-.054-.072-.098-.118-.128zM3.015 4.07c-.064-.04-.136-.055-.205-.055-.07 0-.14.015-.198.04-.07.025-.208.094-.308.147h.003l.013.027.02.055c.006.017.008.034.008.05V4.332c.117-.06.242-.125.31-.152.048-.018.1-.03.15-.03.05 0 .097.012.136.036.027.016.05.04.07.07l-.017.01.074-.04.018-.008.04-.022.005-.003c-.03-.05-.07-.092-.118-.12zM1.904 4.584C1.9 4.572 1.9 4.56 1.9 4.544V4.52c-.028.008-.336.09-.444.133-.038.015-.068.02-.094.02-.057 0-.09-.024-.118-.052L1.24 4.62c.003 0 .005-.002.007-.003l-.086.03-.053.016c.01.015.022.032.04.05.04.046.113.095.214.095h.002c.044 0 .092-.01.144-.03.093-.037.258-.073.416-.122l-.018-.072zM8.402 4.583c-.003-.012-.005-.025-.005-.04v-.02c-.032.008-.335.09-.443.132-.037.015-.068.02-.094.02-.057 0-.09-.024-.118-.052L7.74 4.62l.004-.002-.084.03-.055.016c.01.015.022.032.04.05.042.046.115.095.214.095.045 0 .093-.01.145-.03.093-.038.258-.076.415-.125l-.017-.07v-.002zM9.19 4.534c-.145.043-.3.08-.403.12-.038.016-.068.02-.094.02-.057 0-.092-.023-.118-.05-.005-.007-.01-.012-.013-.018.002 0 .003 0 .004-.002-.024.01-.05.02-.075.028l-.058.02c.01.017.024.04.045.062.027.03.066.06.117.078.028.01.062.018.1.018.044 0 .092-.01.144-.03.09-.037.252-.075.406-.123-.01-.016-.016-.028-.018-.034-.002-.005-.007-.015-.01-.028l-.01-.067-.016.006zM9.207 4.532l.007.064.012.028c.003.006.008.02.018.034.01.017.022.036.042.056.042.046.115.095.215.095h.002c.045 0 .093-.01.144-.03.088-.035.24-.072.388-.117l-.02-.062c-.006-.014-.01-.034-.01-.058v-.01c-.03.01-.31.084-.407.123-.038.015-.07.02-.095.02-.057 0-.092-.024-.117-.052l-.01-.01c.065-.024.124-.05.175-.083.034-.022.065-.047.09-.08.023-.03.04-.07.04-.114v-.018c.11-.06.223-.115.287-.14.046-.018.1-.03.15-.03.048 0 .094.012.133.035.025.016.05.037.068.068l-.023.014c.003 0 .006-.003.01-.005.02-.013.044-.025.068-.038l.003-.002c.02-.01.04-.02.062-.033-.032-.05-.072-.09-.118-.12-.063-.038-.135-.053-.203-.053-.07 0-.138.015-.198.04-.073.027-.18.08-.288.138-.022.01-.042.022-.063.034l-.058.03H9.51l-.115.066c-.05.028-.082.048-.1.06-.06.043-.084.1-.088.147v.002zM10.803 4.605c-.006-.015-.01-.036-.01-.062v-.006c-.024.006-.3.08-.4.12-.037.014-.067.02-.093.02-.057 0-.092-.025-.117-.053l-.006-.005c0-.002.003-.002.006-.003l-.084.03-.056.017c.01.015.022.033.04.052.04.046.114.095.215.095.044 0 .092-.008.143-.028.087-.035.235-.07.382-.114l-.022-.063zM11.626 4.573V4.52c-.154.048-.332.09-.444.134-.038.015-.068.02-.094.02-.057 0-.092-.024-.118-.052l-.003-.003.004-.002c-.026.01-.055.02-.083.028l-.054.017c.01.015.02.033.04.05.04.046.114.096.214.096h.002c.043 0 .09-.01.142-.03.095-.04.267-.08.427-.128-.01-.013-.013-.023-.016-.028-.004-.008-.013-.03-.018-.05zM12.032 4.2c-.03-.055-.072-.098-.12-.128-.063-.042-.14-.058-.21-.058s-.138.015-.198.04c-.07.025-.17.075-.272.13l.03.058.013.026v.002c.006.013.008.025.01.038v-.002c.104-.055.208-.106.268-.13.048-.018.1-.03.15-.03s.1.012.14.038c.024.017.053.046.072.08l.044-.023.072-.04z" fill="currentColor"/><path d="M12.44 4.594l-.005-.066c-.147.044-.315.085-.422.127-.038.015-.07.02-.094.02-.058 0-.092-.024-.118-.052-.006-.005-.01-.01-.014-.016.06-.023.116-.05.163-.082.034-.022.063-.047.085-.078.022-.03.038-.07.038-.11V4.33c.117-.062.242-.125.31-.15.048-.02.1-.03.15-.03.05 0 .097.013.135.034.036.02.066.066.07.072l.01-.006.048-.025.062-.033h.002c-.03-.048-.077-.096-.12-.122-.063-.04-.137-.056-.206-.055-.07 0-.138.015-.197.04-.077.028-.193.087-.306.146-.02.013-.053.03-.072.04l-.044.024h-.002l-.107.06c-.045.027-.074.045-.092.058-.052.037-.078.086-.086.13v.06c.004.02.013.043.017.05.002.005.007.016.015.028.01.018.023.04.045.062.042.046.114.095.215.095.045 0 .093-.01.145-.03.092-.036.253-.074.407-.12l-.02-.037c-.003-.004-.008-.013-.01-.026z" fill="currentColor"/><path d="M13.55 4.256c-.02-.033-.045-.056-.07-.072-.04-.024-.086-.035-.136-.035s-.104.01-.15.028c-.064.025-.18.082-.288.14v.018c0 .043-.016.083-.04.114-.023.032-.055.058-.09.08-.05.032-.11.06-.173.083l.008.01c.027.027.063.05.12.05.024 0 .055-.004.093-.02.108-.042.27-.08.422-.125v.01l.007.056c.004.013.008.023.012.03l.018.032c-.155.047-.317.085-.41.123-.05.02-.098.028-.142.028h-.002c-.1 0-.173-.05-.215-.095-.02-.02-.032-.04-.043-.056l-.02-.036c0-.005-.005-.014-.01-.028l-.005-.065V4.52c.006-.045.032-.1.087-.138.02-.013.05-.033.1-.06.034-.02.074-.043.118-.066l.01-.006.048-.025.062-.033h.002c.106-.057.214-.11.285-.138.06-.024.128-.04.198-.04s.142.016.206.057c.048.03.09.072.12.127-.023.01-.046.02-.063.03l-.05.027-.008.002z"
    fill="currentColor"/>
  </symbol>
  <symbol id="harvard-vcg" viewBox="0 0 16 16">
    <path
      d="M15.993 8.005C16.008 12.32 12.533 15.998 8 16 3.516 16-.01 12.367.007 7.968.022 3.568 3.6-.052 8.1 0c4.436.052 7.916 3.685 7.893 8.005zM7.99 15.442c4.05.037 7.376-3.253 7.458-7.268.088-4.194-3.246-7.63-7.443-7.63C3.872.55.565 3.853.555 7.99c-.012 4.168 3.388 7.48 7.434 7.452z"
      fill="currentColor"/>
    <path
      d="M12.646 7.565c-.336.056-.673.107-1.01.167-1.04.186-2.063.432-3.076.73-.05.017-.11.05-.15.012-.054-.052.007-.108.028-.157.573-1.48 1.05-2.993 1.42-4.535.155-.646.294-1.295.402-1.952.024-.146.08-.157.195-.11.665.268 1.28.618 1.832 1.077.97.812 1.675 1.81 2.087 3.007.352 1.022.443 2.07.297 3.14-.186 1.356-.76 2.533-1.652 3.564-.117.136-.23.2-.43.188-1.655-.09-3.23-.498-4.74-1.17-.197-.086-.39-.185-.586-.273-.09-.042-.104-.093-.06-.18.37-.728.705-1.47 1.015-2.227.033-.08.096-.11.17-.137 1.358-.507 2.744-.905 4.187-1.09.027-.003.052-.016.08-.023l-.008-.032zM8.082 1.256c.124-.017.307.044.494.04.1 0 .126.055.116.15-.09.838-.205 1.675-.348 2.507-.266 1.555-.607 3.098-.967 4.635-.047.2-.14.3-.333.365-.667.232-1.326.482-1.973.764-.1.046-.18.038-.27-.034-1.184-.965-2.153-2.11-2.92-3.43-.266-.453-.28-.458-.048-.955C2.756 3.303 4.28 2.016 6.41 1.46c.526-.138 1.066-.182 1.672-.204zM11.368 13.83c-.435.27-.896.46-1.375.608-.684.215-1.386.32-2.1.306-.8-.017-1.575-.165-2.322-.456-.128-.05-.153-.1-.072-.226.433-.67.848-1.353 1.22-2.062.052-.1.097-.14.21-.067 1.338.845 2.78 1.443 4.315 1.82.04.013.082.017.125.076zM4.807 10.37c.07.002.105.043.143.078.405.37.835.71 1.284 1.022.085.062.112.11.065.215-.35.772-.745 1.516-1.18 2.24-.06.104-.123.116-.227.06-.938-.505-1.73-1.177-2.356-2.042-.084-.115-.07-.173.044-.248.696-.447 1.402-.877 2.126-1.28.035-.02.073-.033.1-.045zM1.268 8.063c-.005-.68.082-1.283.248-1.875.016-.058.012-.15.085-.157.062-.004.074.083.098.133C2.363 7.54 3.243 8.766 4.32 9.85c.098.096.103.15-.03.21-.72.32-1.424.672-2.115 1.048-.103.056-.147.008-.19-.074-.29-.576-.498-1.182-.61-1.817-.07-.403-.12-.807-.107-1.154zM7.13 9.228c.09.015.05.077.037.118-.057.196-.114.39-.18.584-.093.27-.196.535-.29.804-.05.148-.112.17-.25.083-.33-.207-.666-.407-.982-.637-.074-.054-.122-.104-.007-.16.53-.268 1.057-.538 1.604-.77l.067-.022z"
      fill="currentColor"/>
  </symbol>
  <symbol id="location" viewBox="0 0 16 16">
    <path
      d="M12.283,2.831c-0.232-0.552-0.566-1.048-0.992-1.473c-0.426-0.426-0.922-0.76-1.475-0.994C9.246,0.123,8.638,0,8.013,0
      C7.387,0,6.78,0.123,6.208,0.364C5.657,0.598,5.161,0.932,4.735,1.358C4.31,1.783,3.975,2.279,3.742,2.831
      C3.5,3.403,3.377,4.01,3.377,4.636c0,1.05,0.743,2.744,2.209,5.032c1.075,1.679,2.165,3.083,2.176,3.097l0.25,0.321l0.25-0.321
      c0.011-0.014,1.1-1.418,2.176-3.097c1.465-2.289,2.209-3.982,2.209-5.032C12.648,4.01,12.525,3.403,12.283,2.831z M8.013,6.226
      c-0.993,0-1.797-0.805-1.797-1.797c0-0.992,0.805-1.797,1.797-1.797s1.795,0.805,1.795,1.797C9.809,5.421,9.006,6.226,8.013,6.226z"
      fill="currentColor"/>
    <path
      d="M15.07,11.442c-0.402-0.371-0.973-0.701-1.693-0.98c-0.594-0.231-1.268-0.42-1.998-0.562
      c-0.111,0.185-0.229,0.373-0.35,0.564c0.781,0.139,1.5,0.331,2.125,0.573c1.26,0.49,1.982,1.131,1.982,1.759
      s-0.723,1.269-1.982,1.759C11.781,15.089,9.951,15.382,8,15.382s-3.782-0.293-5.153-0.826c-1.261-0.49-1.984-1.131-1.984-1.759
      s0.723-1.269,1.984-1.759c0.666-0.259,1.439-0.461,2.283-0.601c-0.122-0.193-0.238-0.382-0.35-0.566
      c-0.791,0.144-1.52,0.343-2.157,0.59c-0.72,0.28-1.29,0.61-1.693,0.98c-0.455,0.419-0.686,0.874-0.686,1.355
      c0,0.48,0.23,0.937,0.686,1.354c0.403,0.371,0.973,0.701,1.693,0.98C4.063,15.691,5.973,16,8,16c2.026,0,3.936-0.309,5.379-0.869
      c0.719-0.279,1.289-0.609,1.691-0.98c0.455-0.417,0.686-0.873,0.686-1.354C15.756,12.315,15.525,11.86,15.07,11.442z"
      fill="currentColor"/>
  </symbol>
</svg>
